<svg width="695" height="666" viewBox="0 0 695 666" fill="none" xmlns="http://www.w3.org/2000/svg">
<path d="M694.247 607.388C694.247 639.753 538.835 665.993 347.124 665.993C155.412 665.993 0 639.753 0 607.388C0 575.02 155.412 548.783 347.124 548.783C538.835 548.783 694.247 575.02 694.247 607.388Z" fill="#E6E6E6"/>
<path d="M88.3135 411.487C119.188 377.926 291.986 470.97 291.986 470.97L347.027 477.999L402.164 471.61C402.164 471.61 576.036 380.6 606.511 414.537C637 448.459 627.359 522.022 567.338 555.428C507.317 588.82 396.652 626.514 367.557 618.679C361.219 616.966 353.895 609.66 346.315 599.261C338.627 609.561 331.219 616.807 324.862 618.427C295.668 625.922 185.454 586.933 125.836 552.834C66.2028 518.732 57.4331 445.057 88.3135 411.487Z" fill="#23536A"/>
<path d="M321.34 597.978C323.82 593.891 328.887 585.689 335.159 577.539C339.781 570.584 344.933 564.05 350.694 558.562C341.095 557.538 334.149 556.867 332.818 556.462C327.462 554.773 306.046 544.689 306.046 544.689L269.741 590.498C269.741 590.498 289.002 609.179 306.5 624.91C311.401 614.186 317.478 604.335 321.34 597.978Z" fill="#995427"/>
<path d="M313.304 565.784C316.087 563.542 318.575 561.12 320.721 558.253C323.333 554.76 324.06 551.74 324.706 547.52C324.832 546.703 323.91 545.979 323.237 546.664C322.2 547.713 320.919 548.494 320.09 549.741C318.993 551.391 318.046 553.107 316.967 554.763C315.083 557.651 312.525 560.155 310.367 562.845C308.681 564.943 311.209 567.473 313.304 565.784Z" fill="#BF8A40"/>
<path d="M329.443 575.047C330.119 572.991 331.961 572.021 332.734 570.112C333.771 567.552 335.171 565.171 336.232 562.617C336.845 561.138 338.39 558.361 338.183 556.648C337.972 554.896 337.603 553.044 337.657 551.292C337.687 550.388 336.394 550.273 336.136 551.085C335.685 552.494 334.369 553.318 333.813 554.73C332.668 557.652 330.585 560.384 329.226 563.269C328.322 565.189 327.682 567.239 326.305 568.871C324.899 570.539 324.274 572.201 324.186 574.335C324.057 577.469 328.529 577.821 329.443 575.047Z" fill="#BF8A40"/>
<path d="M341.386 569.436C341.386 569.436 319.859 579.273 314.473 580.892C309.099 582.524 212.446 586.936 217.711 605.23C220.121 613.609 227.689 632.438 247.723 638.449C267.757 644.459 315.393 653.731 329.87 650.47C356.591 644.451 374.951 620.416 374.951 620.416L341.386 569.436Z" fill="#B1612D"/>
<path d="M308.39 580.673C307.374 585.935 309.529 590.546 312.519 594.774C313.995 596.86 315.636 598.943 317.337 600.842C319.36 603.099 322.657 604.073 325.346 605.269C326.041 605.579 326.87 605.224 326.882 604.389C326.915 602.591 326.443 601.702 325.208 600.391C323.366 598.438 321.866 596.079 320.033 594.188C316.895 590.954 313.148 586.071 313.37 581.346C313.505 578.509 308.934 577.851 308.39 580.673Z" fill="#D79B48"/>
<path d="M324.583 577.668C326.963 582.41 330.008 586.699 333.278 590.861C334.988 593.037 336.788 595.144 338.585 597.248C340.019 598.928 342.471 599.373 344.362 600.289C345.005 600.602 346.042 600.244 345.951 599.379C345.6 595.988 342.847 593.491 340.773 590.939C336.608 585.815 332.331 580.817 329.142 575.002C327.498 571.996 323.062 574.644 324.583 577.668Z" fill="#D79B48"/>
<path d="M344.896 569.324C344.896 569.324 471.123 480.163 523.216 464.135" stroke="#138BA6" stroke-width="1.33333" stroke-miterlimit="10"/>
<path d="M490.157 460.129C490.157 460.129 475.13 473.152 474.129 488.179" stroke="#138BA6" stroke-width="1.33333" stroke-miterlimit="10"/>
<path d="M168.579 453.115C168.579 453.115 211.655 477.158 234.698 495.19C257.74 513.223 302.821 547.286 302.821 547.286" stroke="#138BA6" stroke-width="1.33333" stroke-miterlimit="10"/>
<path d="M186.611 453.115C186.611 453.115 206.648 471.147 212.659 480.164" stroke="#138BA6" stroke-width="1.33333" stroke-miterlimit="10"/>
<path d="M471.307 429.57C471.307 429.57 493.388 241.838 479.821 213.182C461.59 174.655 379.886 174.111 347.124 174.111C314.359 174.111 232.654 174.655 214.423 213.182C200.857 241.838 222.938 429.57 222.938 429.57C222.938 429.57 219.689 444.597 222.694 455.116C225.7 465.635 256.86 472.902 270.279 473.65C288.311 474.654 317.569 483.67 349.423 483.67C381.277 483.67 424.056 474.149 434.575 470.645C445.094 467.141 462.053 461.554 467.634 447.603C470.64 440.089 471.307 429.57 471.307 429.57Z" fill="#89CFF0"/>
<path d="M226.445 200.156C214.423 204.163 136.283 300.335 127.267 329.389C118.25 358.442 115.245 399.514 135.282 410.534C155.316 421.555 249.487 429.57 249.487 429.57L248.483 239.227C248.483 239.227 238.466 196.15 226.445 200.156Z" fill="#89CFF0"/>
<path d="M233.018 202.669C233.018 202.669 245.349 219.565 250.617 242.166C255.886 264.773 250.031 288.128 250.031 288.128" stroke="#664B47" stroke-width="1.33333" stroke-miterlimit="10"/>
<path d="M175.353 315.365C175.353 315.365 193.385 321.379 202.401 340.914" stroke="#664B47" stroke-width="1.33333" stroke-miterlimit="10"/>
<path d="M168.341 330.392C168.341 330.392 217.93 345.924 233.958 358.946" stroke="#664B47" stroke-width="1.33333" stroke-miterlimit="10"/>
<path d="M467.8 200.156C479.821 204.163 557.962 300.335 566.978 329.389C575.994 358.442 578.999 399.514 558.962 410.534C538.928 421.555 444.757 429.57 444.757 429.57L445.761 239.227C445.761 239.227 455.778 196.15 467.8 200.156Z" fill="#89CFF0"/>
<path d="M461.227 202.669C461.227 202.669 448.896 219.565 443.627 242.166C438.359 264.773 444.213 288.128 444.213 288.128" stroke="#664B47" stroke-width="1.33333" stroke-miterlimit="10"/>
<path d="M518.891 315.365C518.891 315.365 500.859 321.379 491.843 340.914" stroke="#664B47" stroke-width="1.33333" stroke-miterlimit="10"/>
<path d="M525.903 330.392C525.903 330.392 476.313 345.924 460.286 358.946" stroke="#664B47" stroke-width="1.33333" stroke-miterlimit="10"/>
<path d="M239.224 307.35C239.224 307.35 239.224 302.343 244.234 300.339C249.241 298.334 252.246 297.333 255.252 294.328C258.257 291.322 262.266 295.329 262.266 295.329L347.418 340.41L436.579 291.322L442.59 295.329C442.59 295.329 448.099 293.321 449.602 295.329C451.105 297.336 454.11 297.835 455.613 299.338C457.115 300.84 454.612 428.567 454.612 428.567L350.424 474.652L267.273 446.599L239.224 307.35Z" fill="white"/>
<path d="M377.46 138.5L391.216 207.174C391.216 207.174 377.562 227.547 346.979 227.364C316.381 227.178 308.348 207.772 308.348 207.772L320.352 140.165L377.46 138.5Z" fill="#FAC4A8"/>
<path d="M431.729 100.356C426.815 95.6137 416.849 101.877 415.181 103.076C414.952 91.7187 414.174 81.4402 412.734 75.4324C407.289 52.6876 386.206 35.6409 366.009 29.7233C336.259 21.0227 311.449 29.2154 293.615 55.176C284.413 68.529 278.673 84.2683 276.662 100.317C273.855 98.601 270.654 97.4289 267.375 98.03C261.942 99.0549 253.28 113.85 258.873 125.983C264.424 138.083 280.443 142.732 282.168 143.072C288.049 162.58 298.256 176.835 318.353 187.149C338.282 197.377 362.439 200.424 380.279 188.222C397.846 176.215 412.906 151.319 413.765 143.12C421.228 140.538 430.728 132.574 433.995 126.212C438.268 117.893 438.926 107.323 431.729 100.356Z" fill="#FAC4A8"/>
<path d="M428.242 56.9368C427.801 55.9931 427.263 55.1276 426.641 54.3431C430.127 46.8777 427.593 36.9178 421.375 31.7846C416.155 27.4779 410.469 26.1675 403.95 25.4072C403.015 25.2959 402.068 25.2569 401.122 25.2569C399.932 18.63 395.538 12.2946 390.663 8.2253C382.624 1.51424 364.796 -3.88042 356.053 3.66914C353.889 2.57217 351.566 1.81481 349.122 1.56837C340.503 0.699806 330.252 5.55352 326.357 12.8296C325.103 11.922 323.718 11.1315 322.161 10.4884C316.622 8.19827 310.172 9.94442 305.265 12.9137C297.405 17.6683 291.743 27.1292 292.885 36.1575C292.69 36.4159 292.546 36.6564 292.359 36.9118C287.157 35.5955 281.639 37.3326 278.456 42.8505C275.283 48.3504 274.24 57.0991 277.537 62.9746C266.501 79.7718 272.401 91.8475 276.662 100.317C282.547 112.023 282.547 110.866 285.97 108.597C287.782 107.388 290.857 91.8746 293.363 77.4907C296.318 80.1656 300.36 81.8275 304.417 82.5789C313.632 84.2859 321.019 79.0686 326.837 72.4117C327.541 71.6122 328.256 70.7406 328.968 69.8991C330.339 71.2185 331.781 72.3725 333.224 73.2561C342.766 79.0896 354.571 75.955 363.756 70.2838C368.08 77.1 375.657 81.7735 384.123 82.639C390.296 83.2732 396.737 81.9628 402.543 79.264C404.987 93.1279 407.887 107.446 409.624 108.597C413.044 110.875 413.044 112.023 418.932 100.317C421.592 95.0302 424.861 88.3312 424.272 79.9612C426.553 78.0828 428.312 75.4862 429.46 72.5649C431.569 67.1883 430.608 62.019 428.242 56.9368Z" fill="#444140"/>
<path d="M385.283 132.337C385.283 137.47 381.121 141.636 375.988 141.636C370.854 141.636 366.692 137.47 366.692 132.337C366.692 127.204 370.854 123.044 375.988 123.044C381.121 123.044 385.283 127.204 385.283 132.337Z" fill="#7C564F"/>
<path d="M327.553 132.337C327.553 137.47 323.39 141.636 318.257 141.636C313.124 141.636 308.964 137.47 308.964 132.337C308.964 127.204 313.124 123.044 318.257 123.044C323.39 123.044 327.553 127.204 327.553 132.337Z" fill="#7C564F"/>
<path d="M370.052 112.267C372.826 111.57 375.645 111.008 378.506 110.993C380.895 110.981 383.435 111.221 385.776 110.737C386.467 110.596 386.684 109.634 386.191 109.168C381.097 104.351 374.918 105.694 368.712 107.398C365.571 108.261 366.893 113.06 370.052 112.267Z" fill="#444140"/>
<path d="M325.533 107.398C319.327 105.694 313.147 104.351 308.053 109.168C307.56 109.634 307.777 110.596 308.468 110.737C310.797 111.218 313.361 111.014 315.738 110.993C318.587 110.968 321.433 111.576 324.192 112.267C327.351 113.06 328.673 108.261 325.533 107.398Z" fill="#444140"/>
<path d="M344.812 125.001C345.356 127.717 345.603 130.398 345.693 133.061C345.819 135.724 345.759 138.369 345.615 141.001L345.528 142.597L343.553 143.346C342.634 143.694 341.546 144.121 340.635 144.575C339.709 145.016 338.838 145.536 338.309 145.978L338.017 146.252C338.026 146.294 337.924 146.357 337.948 146.336C338.023 146.288 337.939 145.942 337.927 145.945C337.843 145.891 338.032 146.15 338.177 146.402C338.39 146.648 338.874 147.045 338.994 147.228L340.458 148.313C340.927 148.659 341.449 149.137 341.873 149.365C342.763 149.918 343.604 150.607 344.623 151.132C345.609 151.716 346.64 152.211 347.719 152.695C348.263 152.87 348.813 153.191 349.387 153.338C349.961 153.525 350.547 153.753 351.172 153.864C350.006 154.42 348.702 154.643 347.394 154.745C346.736 154.796 346.093 154.742 345.426 154.739C344.749 154.748 344.13 154.577 343.472 154.483C342.156 154.333 340.866 153.849 339.55 153.402C338.853 153.17 338.405 152.894 337.822 152.641L336.187 151.833C335.336 151.304 334.865 150.946 334.182 150.387C333.539 149.717 332.881 149.092 332.427 147.857C332.157 147.367 332.109 146.588 332.082 145.906C332.034 145.2 332.292 144.587 332.496 143.95C332.74 143.367 333.058 142.967 333.377 142.492C333.696 142.098 334.017 141.807 334.354 141.47C335.673 140.34 336.965 139.718 338.243 139.168C339.544 138.645 340.749 138.269 342.159 137.966L340.1 140.31C340.608 137.725 341.2 135.147 341.978 132.595C342.718 130.038 343.619 127.501 344.812 125.001Z" fill="#DC8C7A"/>
<path d="M328.1 163.728C334.041 169.796 342.363 173.253 350.772 171.609C355.338 170.719 368.324 165.577 367.657 159.737C367.609 159.319 367.314 158.869 366.827 158.908C362.659 159.259 358.884 163.266 355.295 165.204C345.522 170.485 338.528 165.983 329.915 161.378C328.421 160.582 326.888 162.493 328.1 163.728Z" fill="#DC8C7A"/>
<path d="M318.353 187.149C338.282 197.377 362.439 200.424 380.279 188.222" stroke="#DC8C7A" stroke-width="1.33333" stroke-miterlimit="10"/>
<path d="M230.208 301.342L258.257 455.621C258.257 455.621 333.392 480.665 351.424 480.665C369.457 480.665 457.617 432.579 457.617 432.579L459.619 300.341L366.451 342.414C366.451 342.414 358.439 344.415 348.419 344.415C337.218 344.415 331.39 341.41 331.39 341.41L230.208 301.342Z" fill="#CC6A5C"/>
<path d="M330.387 347.421L339.403 470.643" stroke="#A24641" stroke-width="1.33333" stroke-miterlimit="10"/>
<path d="M361.444 472.647L362.445 349.425" stroke="#A24641" stroke-width="1.33333" stroke-miterlimit="10"/>
<path d="M381.481 370.463V392.505L434.578 369.462L435.579 346.42L381.481 370.463Z" fill="#FFDDB3"/>
<path d="M231.665 373.469C231.665 373.469 230.661 358.442 243.687 361.447C256.709 364.453 260.715 375.473 261.719 382.485C262.72 389.497 255.708 389.497 255.708 389.497C255.708 389.497 263.724 400.514 259.714 404.524C255.708 408.533 255.708 408.533 255.708 408.533C255.708 408.533 263.721 418.55 258.714 421.555C253.704 424.561 248.697 425.561 248.697 425.561C248.697 425.561 254.704 440.588 246.692 437.583C238.677 434.578 227.659 431.572 226.655 422.556C225.654 413.54 232.666 412.539 232.666 412.539C232.666 412.539 226.655 404.524 228.66 397.512C230.664 390.5 235.671 393.506 235.671 393.506C235.671 393.506 222.649 381.484 231.665 373.469Z" fill="#FAC4A8"/>
<path d="M233.67 374.476C233.67 374.476 253.704 385.488 255.708 389.497" stroke="#DC8C7A" stroke-width="1.33333" stroke-miterlimit="10"/>
<path d="M235.671 393.506C235.671 393.506 250.2 403.024 254.708 408.034" stroke="#DC8C7A" stroke-width="1.33333" stroke-miterlimit="10"/>
<path d="M234.67 412.542C234.67 412.542 243.188 417.543 248.696 425.562" stroke="#DC8C7A" stroke-width="1.33333" stroke-miterlimit="10"/>
<path d="M462.579 373.469C462.579 373.469 463.58 358.442 450.557 361.447C437.532 364.453 433.526 375.473 432.525 382.485C431.521 389.497 438.536 389.497 438.536 389.497C438.536 389.497 430.52 400.514 434.526 404.524C438.536 408.533 438.536 408.533 438.536 408.533C438.536 408.533 430.52 418.55 435.53 421.555C440.537 424.561 445.547 425.561 445.547 425.561C445.547 425.561 439.536 440.588 447.552 437.583C455.564 434.578 466.585 431.572 467.586 422.556C468.59 413.54 461.575 412.539 461.575 412.539C461.575 412.539 467.589 404.524 465.584 397.512C463.58 390.5 458.57 393.506 458.57 393.506C458.57 393.506 471.595 381.484 462.579 373.469Z" fill="#FAC4A8"/>
<path d="M460.575 374.476C460.575 374.476 440.54 385.488 438.536 389.497" stroke="#DC8C7A" stroke-width="1.33333" stroke-miterlimit="10"/>
<path d="M458.57 393.506C458.57 393.506 444.045 403.024 439.537 408.034" stroke="#DC8C7A" stroke-width="1.33333" stroke-miterlimit="10"/>
<path d="M459.574 412.542C459.574 412.542 451.056 417.543 445.547 425.562" stroke="#DC8C7A" stroke-width="1.33333" stroke-miterlimit="10"/>
</svg>
