<svg width="126" height="30" viewBox="0 0 126 30" fill="none" xmlns="http://www.w3.org/2000/svg">
<rect width="55" height="30" rx="8" fill="#89CFF0"/>
<path d="M4.80078 6.39062C5.30078 6.46875 5.75391 6.53906 6.16016 6.60156C6.56641 6.64844 6.91797 6.6875 7.21484 6.71875C7.55859 6.76562 7.86328 6.80469 8.12891 6.83594C8.45703 6.88281 8.94922 6.82812 9.60547 6.67188C10.2617 6.5 10.9805 6.34375 11.7617 6.20312C12.5586 6.04688 13.3711 5.96094 14.1992 5.94531C15.0273 5.91406 15.7852 6.0625 16.4727 6.39062C17.1602 6.71875 17.7227 7.04688 18.1602 7.375C18.5977 7.70312 18.9414 8.05469 19.1914 8.42969C19.457 8.78906 19.6445 9.17188 19.7539 9.57812C19.8633 9.98438 19.9258 10.4297 19.9414 10.9141C19.9258 11.6328 19.7539 12.3281 19.4258 13C19.2852 13.2812 19.0977 13.5781 18.8633 13.8906C18.6445 14.1875 18.3711 14.4766 18.043 14.7578C17.7148 15.0391 17.3242 15.3047 16.8711 15.5547C16.4336 15.8047 15.918 16.0234 15.3242 16.2109C15.9023 16.3828 16.3789 16.5859 16.7539 16.8203C17.1445 17.0547 17.457 17.2734 17.6914 17.4766C17.9727 17.7266 18.1836 17.9688 18.3242 18.2031C18.4961 18.5312 18.6133 18.8125 18.6758 19.0469C18.7383 19.2812 18.7773 19.5078 18.793 19.7266C18.8242 19.9297 18.8633 20.1406 18.9102 20.3594C18.957 20.5781 19.0586 20.8281 19.2148 21.1094C19.3398 21.3281 19.4883 21.5547 19.6602 21.7891C19.8164 21.9922 19.9961 22.2109 20.1992 22.4453C20.418 22.6797 20.6836 22.9062 20.9961 23.125C20.5586 23.1406 20.1523 23.1484 19.7773 23.1484C19.418 23.1484 19.1055 23.1484 18.8398 23.1484C18.5273 23.1484 18.2305 23.1406 17.9492 23.125C17.668 23.1094 17.3164 23.1016 16.8945 23.1016C16.5352 23.1016 16.0742 23.1016 15.5117 23.1016C14.9648 23.1016 14.3008 23.1094 13.5195 23.125C13.8633 22.8594 14.1445 22.5938 14.3633 22.3281C14.582 22.0625 14.7539 21.8203 14.8789 21.6016C15.0195 21.3516 15.1211 21.1094 15.1836 20.875C15.2617 20.4531 15.2695 20.0156 15.207 19.5625C15.1602 19.1719 15.0352 18.7422 14.832 18.2734C14.6289 17.7891 14.3008 17.3047 13.8477 16.8203C13.3945 16.8984 13.0117 16.9609 12.6992 17.0078C12.4023 17.0391 12.1445 17.0703 11.9258 17.1016C11.6758 17.1328 11.4727 17.1562 11.3164 17.1719C11.1758 17.1875 11.0195 17.2031 10.8477 17.2188C10.707 17.2344 10.5508 17.2578 10.3789 17.2891C10.2227 17.3047 10.0742 17.3281 9.93359 17.3594C9.90234 18.0312 9.90234 18.6172 9.93359 19.1172C9.96484 19.6016 10.0039 20.0078 10.0508 20.3359C10.1133 20.7266 10.1836 21.0625 10.2617 21.3438C10.3398 21.625 10.4492 21.8984 10.5898 22.1641C10.6992 22.3828 10.8398 22.6172 11.0117 22.8672C11.1836 23.1016 11.3789 23.2969 11.5977 23.4531C11.1914 23.4531 10.8008 23.4531 10.4258 23.4531C10.0664 23.4531 9.73828 23.4453 9.44141 23.4297C9.09766 23.4297 8.76953 23.4219 8.45703 23.4062C8.14453 23.3906 7.79297 23.3828 7.40234 23.3828C7.07422 23.3828 6.68359 23.3828 6.23047 23.3828C5.79297 23.3828 5.31641 23.3906 4.80078 23.4062C5.20703 22.9844 5.52734 22.625 5.76172 22.3281C5.99609 22.0312 6.17578 21.7812 6.30078 21.5781C6.44141 21.3594 6.52734 21.1719 6.55859 21.0156C6.58984 20.7656 6.61328 20.3203 6.62891 19.6797C6.66016 19.0234 6.68359 18.2734 6.69922 17.4297C6.71484 16.5859 6.72266 15.7031 6.72266 14.7812C6.72266 13.8594 6.71484 13 6.69922 12.2031C6.68359 11.3906 6.66797 10.6953 6.65234 10.1172C6.63672 9.53906 6.62109 9.17188 6.60547 9.01562C6.55859 8.73438 6.45703 8.45312 6.30078 8.17188C6.17578 7.92188 5.99609 7.64063 5.76172 7.32812C5.52734 7.01562 5.20703 6.70313 4.80078 6.39062ZM13.6602 14.6406C13.8164 14.5469 13.9492 14.4531 14.0586 14.3594C14.168 14.2656 14.2617 14.1172 14.3398 13.9141C14.418 13.6953 14.4805 13.3906 14.5273 13C14.5898 12.6094 14.6602 12.0781 14.7383 11.4062C14.8008 10.7344 14.7539 10.1797 14.5977 9.74219C14.457 9.30469 14.2617 8.96094 14.0117 8.71094C13.7773 8.44531 13.5117 8.26562 13.2148 8.17188C12.9336 8.0625 12.6836 8.00781 12.4648 8.00781C12.0273 8.00781 11.5977 8.14062 11.1758 8.40625C10.7539 8.67188 10.4336 9.03125 10.2148 9.48438C10.1367 9.6875 10.0664 10.0234 10.0039 10.4922C9.95703 10.8984 9.92578 11.4609 9.91016 12.1797C9.89453 12.8984 9.91797 13.8438 9.98047 15.0156C10.5742 15.1094 11.0977 15.1484 11.5508 15.1328C12.0039 15.1016 12.3867 15.0469 12.6992 14.9688C13.0742 14.8906 13.3945 14.7812 13.6602 14.6406ZM19.5664 7.49219C20.6602 7.52344 21.5664 7.54688 22.2852 7.5625C23.0195 7.5625 23.6133 7.5625 24.0664 7.5625H25.3086H32.293C32.3242 7.875 32.3477 8.17969 32.3633 8.47656C32.3945 8.75781 32.4102 9.00781 32.4102 9.22656C32.4102 9.49219 32.4023 9.73438 32.3867 9.95312C32.3711 10.1719 32.3477 10.4062 32.3164 10.6562C32.2852 10.875 32.2539 11.1094 32.2227 11.3594C32.1914 11.6094 32.1367 11.8672 32.0586 12.1328C31.8398 11.2891 31.543 10.6484 31.168 10.2109C30.8086 9.77344 30.4414 9.45312 30.0664 9.25C29.6289 9.01562 29.168 8.89062 28.6836 8.875C28.043 8.90625 27.543 8.96094 27.1836 9.03906C26.8242 9.11719 26.543 9.22656 26.3398 9.36719C26.1367 9.50781 25.9805 9.67188 25.8711 9.85938C25.7773 10.0312 25.6758 10.2266 25.5664 10.4453C25.4727 10.6328 25.3867 10.9219 25.3086 11.3125C25.2305 11.6406 25.1523 12.0859 25.0742 12.6484C25.0117 13.2109 24.9414 13.9375 24.8633 14.8281C25.2852 14.7031 25.6211 14.5859 25.8711 14.4766C26.1367 14.3672 26.3477 14.2734 26.5039 14.1953C26.6758 14.1016 26.8008 14.0156 26.8789 13.9375C26.9414 13.8438 27.0352 13.6719 27.1602 13.4219C27.2539 13.2031 27.3789 12.9062 27.5352 12.5312C27.707 12.1562 27.9102 11.6406 28.1445 10.9844C28.1758 11.7031 28.1914 12.3047 28.1914 12.7891C28.1914 13.2578 28.1992 13.6406 28.2148 13.9375C28.2148 14.2812 28.2227 14.5547 28.2383 14.7578V15.6484C28.2383 15.9766 28.2383 16.4219 28.2383 16.9844C28.2539 17.5312 28.2773 18.2266 28.3086 19.0703C28.1211 18.4922 27.9492 18.0391 27.793 17.7109C27.6523 17.3672 27.5273 17.1094 27.418 16.9375C27.293 16.7344 27.1836 16.5938 27.0898 16.5156C26.9805 16.4844 26.832 16.4531 26.6445 16.4219C26.4727 16.4062 26.2539 16.3984 25.9883 16.3984C25.7383 16.3984 25.418 16.4375 25.0273 16.5156C24.9805 17.375 24.9727 18.0703 25.0039 18.6016C25.0508 19.1172 25.1133 19.5156 25.1914 19.7969C25.2695 20.125 25.3633 20.3594 25.4727 20.5C25.6133 20.6406 25.8945 20.7578 26.3164 20.8516C26.7383 20.9297 27.2148 20.9609 27.7461 20.9453C28.293 20.9141 28.8477 20.8203 29.4102 20.6641C29.9727 20.5078 30.4727 20.25 30.9102 19.8906C31.2383 19.5938 31.5898 19.2188 31.9648 18.7656C32.2773 18.375 32.6211 17.8828 32.9961 17.2891C33.3867 16.6953 33.7695 15.9766 34.1445 15.1328C34.082 15.8359 34.0352 16.4219 34.0039 16.8906C33.9883 17.3438 33.9648 17.7109 33.9336 17.9922C33.9023 18.3203 33.8789 18.5703 33.8633 18.7422C33.8633 18.9297 33.8398 19.1953 33.793 19.5391C33.7617 19.8359 33.707 20.2422 33.6289 20.7578C33.5664 21.2578 33.4805 21.8984 33.3711 22.6797C32.6367 22.6953 31.9414 22.7109 31.2852 22.7266C30.6289 22.7266 30.0508 22.7344 29.5508 22.75C28.957 22.7656 28.4102 22.7812 27.9102 22.7969C27.3945 22.7969 26.8242 22.8203 26.1992 22.8672C25.6523 22.8984 25.0039 22.9453 24.2539 23.0078C23.5195 23.0703 22.707 23.1562 21.8164 23.2656C21.8945 22.2031 21.9492 21.2031 21.9805 20.2656C22.0273 19.3125 22.0586 18.4766 22.0742 17.7578C22.0898 16.9141 22.0898 16.1328 22.0742 15.4141C22.1523 13.6172 22.1211 12.1641 21.9805 11.0547C21.8398 9.94531 21.6758 9.23438 21.4883 8.92188C21.3945 8.8125 21.2617 8.67969 21.0898 8.52344C20.9492 8.39844 20.7539 8.25 20.5039 8.07812C20.2539 7.90625 19.9414 7.71094 19.5664 7.49219ZM33.793 6.88281C34.4961 7.00781 35.0742 7.09375 35.5273 7.14062C35.9805 7.1875 36.3477 7.22656 36.6289 7.25781C36.957 7.28906 37.2148 7.29687 37.4023 7.28125H38.1055C38.3555 7.28125 38.668 7.28125 39.043 7.28125C39.4336 7.26563 39.918 7.25781 40.4961 7.25781C40.8242 8.02344 41.1211 8.72656 41.3867 9.36719C41.668 10.0078 41.9023 10.5547 42.0898 11.0078C42.3086 11.5547 42.5117 12.0469 42.6992 12.4844C42.918 13.0312 43.1523 13.6328 43.4023 14.2891C43.6523 14.9453 43.8789 15.5625 44.082 16.1406C44.3008 16.7188 44.4805 17.1953 44.6211 17.5703C44.7617 17.9453 44.832 18.1172 44.832 18.0859C44.832 18.0703 44.8398 17.9141 44.8555 17.6172C44.8711 17.3047 44.8867 16.9219 44.9023 16.4688C44.918 16 44.9336 15.4922 44.9492 14.9453C44.9805 14.3828 44.9961 13.8438 44.9961 13.3281C45.0117 12.7969 45.0195 12.3125 45.0195 11.875C45.0195 11.4375 45.0039 11.1094 44.9727 10.8906C44.9258 10.625 44.832 10.3203 44.6914 9.97656C44.5664 9.67969 44.3945 9.32812 44.1758 8.92188C43.957 8.5 43.6523 8.02344 43.2617 7.49219C43.9023 7.50781 44.4258 7.51562 44.832 7.51562C45.2383 7.51562 45.5664 7.51562 45.8164 7.51562C46.0977 7.51562 46.3164 7.50781 46.4727 7.49219C46.6758 7.49219 46.9258 7.47656 47.2227 7.44531C47.4883 7.41406 47.8164 7.39062 48.207 7.375C48.6133 7.34375 49.1133 7.30469 49.707 7.25781C49.3633 7.57031 49.0898 7.86719 48.8867 8.14844C48.6836 8.42969 48.5195 8.67969 48.3945 8.89844C48.2539 9.14844 48.1602 9.38281 48.1133 9.60156C48.0508 9.88281 47.9961 10.3438 47.9492 10.9844C47.918 11.6094 47.8789 12.3125 47.832 13.0938C47.8008 13.875 47.7695 14.6875 47.7383 15.5312C47.707 16.375 47.6758 17.1484 47.6445 17.8516C47.6445 18.3828 47.6289 18.9531 47.5977 19.5625C47.5664 20.0781 47.5352 20.6641 47.5039 21.3203C47.4727 21.9609 47.4336 22.6094 47.3867 23.2656L45.3008 23.3125C44.6914 22.2344 44.1758 21.3125 43.7539 20.5469C43.3477 19.7656 43.0117 19.125 42.7461 18.625C42.4492 18.0469 42.1992 17.5625 41.9961 17.1719C41.8242 16.7969 41.5977 16.3672 41.3164 15.8828C41.082 15.4766 40.7852 14.9766 40.4258 14.3828C40.082 13.7891 39.668 13.1094 39.1836 12.3438C39.1367 13.4219 39.1133 14.3438 39.1133 15.1094C39.1289 15.8594 39.1523 16.4844 39.1836 16.9844C39.2305 17.5625 39.2852 18.0469 39.3477 18.4375C39.4258 18.8125 39.5352 19.2344 39.6758 19.7031C39.8008 20.1094 39.9492 20.5859 40.1211 21.1328C40.3086 21.6797 40.5352 22.2969 40.8008 22.9844C39.8789 22.9375 39.1914 22.9141 38.7383 22.9141H38.0352C37.8164 22.9141 37.5195 22.9375 37.1445 22.9844C36.832 23.0156 36.4023 23.0625 35.8555 23.125C35.3242 23.1875 34.6602 23.2734 33.8633 23.3828C34.2383 22.9297 34.5352 22.5156 34.7539 22.1406C34.9883 21.75 35.168 21.4219 35.293 21.1562C35.4492 20.8438 35.5586 20.5703 35.6211 20.3359C35.668 20.0859 35.6992 19.6562 35.7148 19.0469C35.7305 18.4219 35.7305 17.7188 35.7148 16.9375C35.7148 16.1406 35.6992 15.3047 35.668 14.4297C35.6523 13.5547 35.6289 12.7422 35.5977 11.9922C35.5664 11.2422 35.5273 10.6016 35.4805 10.0703C35.4492 9.53906 35.4258 9.21094 35.4102 9.08594C35.3633 8.88281 35.2695 8.66406 35.1289 8.42969C35.0039 8.22656 34.8398 8 34.6367 7.75C34.4336 7.48437 34.1523 7.19531 33.793 6.88281Z" fill="white"/>
<path d="M58.1094 7.24219C58.6094 7.36719 59.0859 7.46094 59.5391 7.52344C59.9922 7.58594 60.3906 7.63281 60.7344 7.66406C61.1406 7.71094 61.5156 7.72656 61.8594 7.71094C62.2969 7.71094 62.8438 7.67188 63.5 7.59375C64.1719 7.51562 64.8594 7.44531 65.5625 7.38281C66.2656 7.30469 66.9375 7.25781 67.5781 7.24219C68.2344 7.21094 68.7656 7.25 69.1719 7.35938C69.5781 7.45312 69.9922 7.60156 70.4141 7.80469C70.8516 7.99219 71.25 8.23438 71.6094 8.53125C71.9688 8.8125 72.2656 9.14844 72.5 9.53906C72.7344 9.91406 72.8672 10.3438 72.8984 10.8281C72.8828 11.4375 72.7422 12.0078 72.4766 12.5391C72.2578 12.9922 71.8906 13.4609 71.375 13.9453C70.8594 14.4141 70.1172 14.7734 69.1484 15.0234C69.6328 15.0859 70.0469 15.1953 70.3906 15.3516C70.75 15.4922 71.0547 15.6641 71.3047 15.8672C71.5703 16.0547 71.7812 16.2656 71.9375 16.5C72.1094 16.7344 72.2422 16.9688 72.3359 17.2031C72.5703 17.75 72.6797 18.3594 72.6641 19.0312C72.5703 19.9062 72.3906 20.6016 72.125 21.1172C71.875 21.6328 71.5859 22.0312 71.2578 22.3125C70.9297 22.5938 70.5938 22.7891 70.25 22.8984C69.9062 23.0078 69.5938 23.0938 69.3125 23.1562C69.0312 23.2188 68.6875 23.25 68.2812 23.25C67.875 23.25 67.4375 23.2422 66.9688 23.2266C66.5156 23.1953 66.0469 23.1719 65.5625 23.1562C65.0781 23.125 64.6172 23.125 64.1797 23.1562C63.8203 23.1875 63.3828 23.2188 62.8672 23.25C62.4297 23.2812 61.8828 23.3203 61.2266 23.3672C60.5703 23.3984 59.8047 23.4375 58.9297 23.4844C59.1016 23.3594 59.2422 23.2188 59.3516 23.0625C59.4766 22.8906 59.5781 22.7422 59.6562 22.6172C59.7344 22.4609 59.8047 22.3125 59.8672 22.1719C59.9141 22.0469 59.9531 21.7031 59.9844 21.1406C60.0156 20.5781 60.0391 19.9062 60.0547 19.125C60.0703 18.3281 60.0781 17.4766 60.0781 16.5703C60.0938 15.6484 60.0859 14.7656 60.0547 13.9219C60.0391 13.0625 60.0078 12.3047 59.9609 11.6484C59.9297 10.9766 59.8828 10.4922 59.8203 10.1953C59.7266 9.86719 59.6016 9.53125 59.4453 9.1875C59.3203 8.89062 59.1406 8.57031 58.9062 8.22656C58.6875 7.88281 58.4219 7.55469 58.1094 7.24219ZM63.0547 9.63281C63.0547 9.69531 63.0625 9.90625 63.0781 10.2656C63.0938 10.5781 63.1094 11.0625 63.125 11.7188C63.1562 12.3594 63.1953 13.2734 63.2422 14.4609C63.6328 14.6328 64.0156 14.7266 64.3906 14.7422C64.7656 14.7422 65.1016 14.7266 65.3984 14.6953C65.7422 14.6484 66.0703 14.5703 66.3828 14.4609C66.8047 14.2891 67.1328 14.0078 67.3672 13.6172C67.6172 13.2266 67.7812 12.8203 67.8594 12.3984C67.9531 11.9609 67.9766 11.5547 67.9297 11.1797C67.8828 10.7891 67.7812 10.5078 67.625 10.3359C67.3281 10.0703 66.9609 9.85156 66.5234 9.67969C66.1484 9.53906 65.6719 9.44531 65.0938 9.39844C64.5312 9.33594 63.8516 9.41406 63.0547 9.63281ZM62.9375 20.7422C63.5156 21.0391 64.0234 21.2344 64.4609 21.3281C64.8984 21.4219 65.2656 21.4688 65.5625 21.4688C65.9062 21.4688 66.2031 21.4219 66.4531 21.3281C66.75 21.1875 67.0391 21 67.3203 20.7656C67.6172 20.5156 67.8359 20.2266 67.9766 19.8984C68.1328 19.5547 68.1953 19.1797 68.1641 18.7734C68.1328 18.3516 67.9531 17.8906 67.625 17.3906C67.3281 17.0312 66.9688 16.75 66.5469 16.5469C66.1719 16.375 65.6953 16.2656 65.1172 16.2188C64.5547 16.1719 63.8594 16.3047 63.0312 16.6172L62.9375 20.7422ZM81.9453 6.32812C82.7891 6.35938 83.6406 6.51562 84.5 6.79688C85.375 7.0625 86.1797 7.5 86.9141 8.10938C87.6484 8.70312 88.2734 9.47656 88.7891 10.4297C89.3047 11.3672 89.625 12.5156 89.75 13.875C89.8594 14.9844 89.7188 16.0859 89.3281 17.1797C88.9531 18.2578 88.4297 19.25 87.7578 20.1562C87.0859 21.0625 86.3125 21.8359 85.4375 22.4766C84.5625 23.1016 83.6875 23.5156 82.8125 23.7188C82.2812 23.8438 81.6953 23.8594 81.0547 23.7656C80.4297 23.6562 79.7891 23.4609 79.1328 23.1797C78.4922 22.8828 77.8594 22.5078 77.2344 22.0547C76.625 21.6016 76.0703 21.0859 75.5703 20.5078C75.0703 19.9141 74.6484 19.2734 74.3047 18.5859C73.9766 17.8984 73.7734 17.1797 73.6953 16.4297C73.6172 15.8047 73.6094 15.1172 73.6719 14.3672C73.75 13.6016 73.8984 12.8438 74.1172 12.0938C74.3516 11.3281 74.6719 10.5938 75.0781 9.89062C75.5 9.17188 76.0312 8.54688 76.6719 8.01562C77.3125 7.46875 78.0625 7.04687 78.9219 6.75C79.7969 6.4375 80.8047 6.29687 81.9453 6.32812ZM77.75 15.8203C77.5312 17.4922 77.6875 18.8359 78.2188 19.8516C78.7656 20.8672 79.5859 21.4844 80.6797 21.7031C81.2109 21.8125 81.7188 21.7031 82.2031 21.375C82.7031 21.0312 83.1562 20.5391 83.5625 19.8984C83.9688 19.2578 84.3203 18.5078 84.6172 17.6484C84.9141 16.7891 85.1328 15.8906 85.2734 14.9531C85.4141 14.0156 85.4219 13.1719 85.2969 12.4219C85.1875 11.6562 84.9922 11.0078 84.7109 10.4766C84.4297 9.92969 84.0859 9.50781 83.6797 9.21094C83.2891 8.91406 82.8828 8.75 82.4609 8.71875C81.7266 8.67188 81.0859 8.86719 80.5391 9.30469C79.9922 9.72656 79.5312 10.2812 79.1562 10.9688C78.7812 11.6562 78.4766 12.4297 78.2422 13.2891C78.0234 14.1484 77.8594 14.9922 77.75 15.8203ZM99.0547 6.32812C99.8984 6.35938 100.75 6.51562 101.609 6.79688C102.484 7.0625 103.289 7.5 104.023 8.10938C104.758 8.70312 105.383 9.47656 105.898 10.4297C106.414 11.3672 106.734 12.5156 106.859 13.875C106.969 14.9844 106.828 16.0859 106.438 17.1797C106.062 18.2578 105.539 19.25 104.867 20.1562C104.195 21.0625 103.422 21.8359 102.547 22.4766C101.672 23.1016 100.797 23.5156 99.9219 23.7188C99.3906 23.8438 98.8047 23.8594 98.1641 23.7656C97.5391 23.6562 96.8984 23.4609 96.2422 23.1797C95.6016 22.8828 94.9688 22.5078 94.3438 22.0547C93.7344 21.6016 93.1797 21.0859 92.6797 20.5078C92.1797 19.9141 91.7578 19.2734 91.4141 18.5859C91.0859 17.8984 90.8828 17.1797 90.8047 16.4297C90.7266 15.8047 90.7188 15.1172 90.7812 14.3672C90.8594 13.6016 91.0078 12.8438 91.2266 12.0938C91.4609 11.3281 91.7812 10.5938 92.1875 9.89062C92.6094 9.17188 93.1406 8.54688 93.7812 8.01562C94.4219 7.46875 95.1719 7.04687 96.0312 6.75C96.9062 6.4375 97.9141 6.29687 99.0547 6.32812ZM94.8594 15.8203C94.6406 17.4922 94.7969 18.8359 95.3281 19.8516C95.875 20.8672 96.6953 21.4844 97.7891 21.7031C98.3203 21.8125 98.8281 21.7031 99.3125 21.375C99.8125 21.0312 100.266 20.5391 100.672 19.8984C101.078 19.2578 101.43 18.5078 101.727 17.6484C102.023 16.7891 102.242 15.8906 102.383 14.9531C102.523 14.0156 102.531 13.1719 102.406 12.4219C102.297 11.6562 102.102 11.0078 101.82 10.4766C101.539 9.92969 101.195 9.50781 100.789 9.21094C100.398 8.91406 99.9922 8.75 99.5703 8.71875C98.8359 8.67188 98.1953 8.86719 97.6484 9.30469C97.1016 9.72656 96.6406 10.2812 96.2656 10.9688C95.8906 11.6562 95.5859 12.4297 95.3516 13.2891C95.1328 14.1484 94.9688 14.9922 94.8594 15.8203ZM107.68 7.26562C108.211 7.34375 108.68 7.39844 109.086 7.42969C109.508 7.46094 109.859 7.49219 110.141 7.52344C110.469 7.55469 110.75 7.57031 110.984 7.57031H111.898C112.508 7.57031 113.516 7.54688 114.922 7.5C114.578 7.60937 114.289 7.76563 114.055 7.96875C113.836 8.17188 113.656 8.38281 113.516 8.60156C113.344 8.85156 113.219 9.10938 113.141 9.375C113.047 9.70312 112.961 10.1406 112.883 10.6875C112.805 11.1719 112.727 11.8047 112.648 12.5859C112.586 13.3672 112.523 14.3438 112.461 15.5156C113.133 14.75 113.719 14.0703 114.219 13.4766C114.734 12.8828 115.18 12.3594 115.555 11.9062C115.93 11.4531 116.242 11.0625 116.492 10.7344C116.758 10.4062 116.977 10.125 117.148 9.89062C117.555 9.35938 117.789 9 117.852 8.8125C117.867 8.70312 117.859 8.57031 117.828 8.41406C117.797 8.28906 117.75 8.14062 117.688 7.96875C117.625 7.78125 117.531 7.57813 117.406 7.35938C118.031 7.39063 118.562 7.41406 119 7.42969C119.453 7.44531 119.828 7.46094 120.125 7.47656C120.469 7.49219 120.75 7.5 120.969 7.5H121.953C122.312 7.5 122.781 7.5 123.359 7.5C123.938 7.48438 124.664 7.46875 125.539 7.45312C124.961 7.59375 124.414 7.78125 123.898 8.01562C123.383 8.25 122.922 8.47656 122.516 8.69531C122.047 8.96094 121.609 9.23438 121.203 9.51562C120.797 9.82812 120.344 10.1953 119.844 10.6172C119.422 10.9766 118.93 11.4219 118.367 11.9531C117.805 12.4688 117.195 13.0703 116.539 13.7578C117.242 15.1328 117.852 16.2656 118.367 17.1562C118.898 18.0312 119.344 18.7344 119.703 19.2656C120.109 19.8906 120.453 20.3672 120.734 20.6953C121.016 20.9922 121.344 21.2969 121.719 21.6094C122.031 21.875 122.422 22.1719 122.891 22.5C123.359 22.8125 123.898 23.1172 124.508 23.4141L117.828 23.7422C117.922 23.6172 117.977 23.4688 117.992 23.2969C118.023 23.1094 118.039 22.9375 118.039 22.7812C118.039 22.6094 118.023 22.4219 117.992 22.2188C117.93 21.9688 117.766 21.5625 117.5 21C117.281 20.5156 116.945 19.8359 116.492 18.9609C116.039 18.0703 115.414 16.8984 114.617 15.4453L112.625 17.5312C112.547 18.0312 112.508 18.4844 112.508 18.8906C112.508 19.2969 112.523 19.6328 112.555 19.8984C112.602 20.2266 112.664 20.5078 112.742 20.7422C112.836 20.9766 112.969 21.2422 113.141 21.5391C113.281 21.8047 113.469 22.1172 113.703 22.4766C113.938 22.8359 114.234 23.2344 114.594 23.6719C114.234 23.5781 113.875 23.5156 113.516 23.4844C113.156 23.4375 112.828 23.4062 112.531 23.3906C112.188 23.375 111.859 23.3828 111.547 23.4141C111.219 23.4453 110.836 23.4922 110.398 23.5547C110.023 23.6172 109.562 23.6953 109.016 23.7891C108.469 23.8828 107.844 24 107.141 24.1406C107.484 23.9375 107.758 23.7188 107.961 23.4844C108.164 23.25 108.328 23.0234 108.453 22.8047C108.594 22.5547 108.688 22.3125 108.734 22.0781C108.766 21.875 108.789 21.4375 108.805 20.7656C108.836 20.0938 108.852 19.3125 108.852 18.4219C108.867 17.5156 108.867 16.5625 108.852 15.5625C108.836 14.5625 108.82 13.625 108.805 12.75C108.789 11.875 108.766 11.1328 108.734 10.5234C108.719 9.89844 108.703 9.51562 108.688 9.375C108.641 9.15625 108.578 8.92188 108.5 8.67188C108.422 8.45312 108.312 8.22656 108.172 7.99219C108.047 7.74219 107.883 7.5 107.68 7.26562Z" fill="black"/>
</svg>
