<svg width="620" height="428" viewBox="0 0 620 428" fill="none" xmlns="http://www.w3.org/2000/svg">
<path d="M177.112 410.902C177.112 410.902 -3.08705 232.367 41.0395 164.425C92.2874 85.5193 177.112 164.425 177.112 164.425V410.902Z" fill="#F0F8FF"/>
<path d="M178.879 405.244C178.879 405.244 86.8582 28.5975 255.511 2.92914C454.602 -27.3716 429.013 187.402 429.013 187.402C429.013 187.402 512.874 103.947 571.192 149.395C652.104 212.45 543.188 399.566 543.188 399.566L178.879 405.244Z" fill="#F0F8FF"/>
<path d="M335.654 410.593C469.927 410.593 578.776 405.293 578.776 398.756C578.776 392.22 469.927 386.92 335.654 386.92C201.381 386.92 92.531 392.22 92.531 398.756C92.531 405.293 201.381 410.593 335.654 410.593Z" fill="#D6E6F2"/>
<path d="M341.145 400.584H151.416C135.021 400.584 121.607 387.169 121.607 370.773V363.058C121.607 346.663 135.021 333.249 151.416 333.249H341.145C344.231 333.249 346.757 335.774 346.757 338.86V394.972C346.757 398.058 344.231 400.584 341.145 400.584Z" fill="#6FA3DC"/>
<path d="M151.416 400.584H295.385V364.599H121.607V370.773C121.607 387.169 135.021 400.584 151.416 400.584Z" fill="#6093D1"/>
<path d="M198.761 362.007V371.827C198.761 387.643 211.701 400.585 227.519 400.585H398.66V397.078H228.051C213.882 397.078 202.29 385.485 202.29 371.316V362.52C202.29 348.351 213.882 336.759 228.051 336.759H398.66V333.251H227.518C211.701 333.249 198.761 346.19 198.761 362.007Z" fill="#4E83B7"/>
<path d="M202.29 362.518V371.314C202.29 385.483 213.882 397.076 228.051 397.076H398.66V336.756H228.051C213.883 336.756 202.29 348.349 202.29 362.518Z" fill="#F4E9FA"/>
<path d="M309.678 382.591C263.498 382.591 224.95 364.279 215.786 339.884C207.764 344.262 202.29 352.782 202.29 362.517V371.314C202.29 385.484 213.882 397.076 228.051 397.076H398.66V348.895C384.43 368.649 349.963 382.591 309.678 382.591Z" fill="#D4CAE9"/>
<path d="M369.084 333.299H179.356C162.961 333.299 149.547 319.884 149.547 303.489V295.774C149.547 279.379 162.961 265.964 179.356 265.964H369.084C372.17 265.964 374.696 268.489 374.696 271.575V327.687C374.696 330.773 372.17 333.299 369.084 333.299Z" fill="#B3D0FF"/>
<path d="M179.356 333.299H323.324V297.314H149.546V303.489C149.546 319.884 162.96 333.299 179.356 333.299Z" fill="#94B8ED"/>
<path d="M226.7 294.722V304.542C226.7 320.358 239.642 333.3 255.458 333.3H426.6V329.793H255.99C241.821 329.793 230.229 318.2 230.229 304.03V295.234C230.229 281.065 241.821 269.472 255.99 269.472H426.599V265.965H255.458C239.64 265.964 226.7 278.905 226.7 294.722Z" fill="#82AADB"/>
<path d="M230.229 295.233V304.029C230.229 318.199 241.821 329.792 255.99 329.792H426.599V269.472H255.99C241.821 269.47 230.229 281.064 230.229 295.233Z" fill="#F4EAFF"/>
<path d="M337.617 315.307C291.437 315.307 252.889 296.993 243.725 272.6C235.703 276.978 230.229 285.498 230.229 295.233V304.03C230.229 318.2 241.821 329.793 255.99 329.793H426.599V281.613C412.369 301.363 377.904 315.307 337.617 315.307Z" fill="#D4CAE9"/>
<path d="M266.166 285.056C266.166 285.698 266.692 286.222 267.333 286.222H426.599V283.888H267.334C266.692 283.888 266.166 284.413 266.166 285.056Z" fill="#BEB4D6"/>
<path d="M266.166 295.557C266.166 296.199 266.692 296.723 267.333 296.723H426.599V294.39H267.334C266.692 294.389 266.166 294.915 266.166 295.557Z" fill="#BEB4D6"/>
<path d="M266.166 306.057C266.166 306.699 266.692 307.224 267.333 307.224H426.599V304.89H267.334C266.692 304.891 266.166 305.417 266.166 306.057Z" fill="#BEB4D6"/>
<path d="M266.166 316.559C266.166 317.201 266.692 317.725 267.333 317.725H426.599V315.391H267.334C266.692 315.392 266.166 315.917 266.166 316.559Z" fill="#BEB4D6"/>
<path d="M238.227 351.164C238.227 351.806 238.753 352.33 239.394 352.33H398.66V349.997H239.395C238.753 349.997 238.227 350.522 238.227 351.164Z" fill="#BEB4D6"/>
<path d="M238.227 361.665C238.227 362.307 238.753 362.832 239.394 362.832H398.66V360.499H239.395C238.753 360.499 238.227 361.023 238.227 361.665Z" fill="#BEB4D6"/>
<path d="M238.227 372.167C238.227 372.809 238.753 373.333 239.394 373.333H398.66V371H239.395C238.753 370.999 238.227 371.525 238.227 372.167Z" fill="#BEB4D6"/>
<path d="M238.227 382.669C238.227 383.311 238.753 383.835 239.394 383.835H398.66V381.501H239.395C238.753 381.501 238.227 382.027 238.227 382.669Z" fill="#BEB4D6"/>
<path d="M118.295 421.773C118.295 424.855 91.8132 427.354 59.1485 427.354C26.4816 427.354 0 424.856 0 421.773C0 418.692 26.4816 416.194 59.1485 416.194C91.8132 416.193 118.295 418.691 118.295 421.773Z" fill="#D6E6F2"/>
<path d="M500.323 273.875C500.323 273.875 564.146 261.129 566.505 244.498C568.861 227.86 555.927 210.231 575.821 191.385C595.722 172.542 601.674 149.651 612.546 152.613C626.56 156.435 618.33 174.674 608.161 191.825C596.303 211.84 603.781 226.349 608.644 233.824C620.86 252.614 595.393 264.996 600.138 291.464C602.078 302.298 587.475 341.586 529.519 332.396L500.323 273.875Z" fill="#61A76A"/>
<path d="M525.947 332.662C546.452 321.555 594.075 247.078 594.551 246.333L593.993 246.045C593.517 246.795 545.987 321.129 525.632 332.156L525.947 332.662Z" fill="#90C69E"/>
<path d="M572.755 279.746C574.691 280.261 577.338 279.646 580.652 277.91L580.344 277.397C576.563 279.374 573.751 279.836 571.995 278.769C569.095 277.002 569.936 271.597 569.942 271.545L569.301 271.474C569.265 271.714 568.402 277.306 571.625 279.268C571.969 279.479 572.344 279.637 572.755 279.746Z" fill="#90C69E"/>
<path d="M584.442 262.666C586.377 263.181 589.023 262.569 592.342 260.835L592.034 260.319C588.245 262.305 585.437 262.764 583.685 261.694C580.784 259.93 581.62 254.521 581.63 254.465L580.99 254.399C580.948 254.639 580.086 260.232 583.311 262.195C583.656 262.404 584.034 262.559 584.442 262.666Z" fill="#90C69E"/>
<path d="M591.438 252.838C593.374 253.353 596.023 252.732 599.336 250.999L599.031 250.483C595.247 252.466 592.434 252.925 590.682 251.857C587.781 250.09 588.621 244.68 588.629 244.629L587.987 244.567C587.949 244.801 587.085 250.39 590.31 252.357C590.654 252.568 591.026 252.729 591.438 252.838Z" fill="#90C69E"/>
<path d="M577.987 271.985C579.605 272.415 581.814 271.9 584.575 270.459L584.265 269.947C581.154 271.573 578.837 271.962 577.405 271.082C575.036 269.642 575.719 265.187 575.726 265.142L575.087 265.077C575.053 265.273 574.332 269.939 577.033 271.58C577.322 271.761 577.643 271.893 577.987 271.985Z" fill="#90C69E"/>
<path d="M566.74 288.154C568.675 288.668 571.324 288.049 574.637 286.318L574.331 285.799C570.55 287.786 567.74 288.242 565.983 287.175C563.084 285.411 563.919 280.001 563.93 279.946L563.287 279.883C563.246 280.121 562.385 285.711 565.607 287.676C565.953 287.886 566.332 288.045 566.74 288.154Z" fill="#90C69E"/>
<path d="M560.525 298.282C562.458 298.796 565.11 298.182 568.424 296.45L568.118 295.936C564.333 297.914 561.518 298.375 559.767 297.306C556.866 295.543 557.706 290.137 557.713 290.081L557.072 290.015C557.031 290.244 556.169 295.841 559.394 297.803C559.74 298.015 560.117 298.173 560.525 298.282Z" fill="#90C69E"/>
<path d="M554.389 305.233C555.788 305.605 557.695 305.163 560.076 303.915L559.765 303.403C557.115 304.795 555.149 305.118 553.937 304.385C551.923 303.159 552.512 299.367 552.516 299.329L551.873 299.268C551.845 299.434 551.225 303.46 553.561 304.883C553.814 305.031 554.091 305.155 554.389 305.233Z" fill="#90C69E"/>
<path d="M566.632 326.393C566.632 326.393 584.888 317.4 575.059 301.821C565.236 286.241 565.244 276.244 575.819 258.125C586.406 239.998 583.182 229.05 573.701 219.107C564.219 209.174 588.384 185.595 572.657 179.604C547.538 170.04 551.869 157.275 559.09 145.661C567.202 132.61 564.087 113.689 547.796 121.303C531.506 128.916 528.926 157.62 532.172 168.171C535.421 178.721 537.074 189.293 521.269 202.812C505.475 216.335 503.221 226.353 505.562 241.124C507.904 255.899 511.081 254.222 501.852 277.348L566.632 326.393Z" fill="#90C69E"/>
<path d="M516.356 333.274C536.089 305.803 550.38 179.876 550.521 178.617L549.602 178.611C549.463 179.875 535.202 305.56 515.616 332.832L516.356 333.274Z" fill="#61A76A"/>
<path d="M543.545 235.392C546.42 234.794 549.498 232.293 552.727 227.928L551.991 227.474C548.304 232.449 544.913 234.862 541.915 234.638C536.961 234.265 534.564 226.821 534.537 226.75L533.649 227.076C533.755 227.404 536.247 235.101 541.752 235.513C542.339 235.562 542.933 235.52 543.545 235.392Z" fill="#61A76A"/>
<path d="M547.828 206.018C550.703 205.418 553.782 202.923 557.016 198.558L556.276 198.1C552.589 203.09 549.197 205.498 546.203 205.267C541.249 204.898 538.843 197.452 538.82 197.375L537.937 197.707C538.038 198.041 540.529 205.739 546.036 206.151C546.625 206.192 547.222 206.145 547.828 206.018Z" fill="#61A76A"/>
<path d="M550.647 188.938C553.524 188.339 556.601 185.828 559.829 181.47L559.095 181.01C555.41 185.995 552.013 188.404 549.02 188.179C544.066 187.804 541.663 180.356 541.643 180.285L540.759 180.622C540.86 180.945 543.347 188.639 548.855 189.056C549.444 189.102 550.036 189.065 550.647 188.938Z" fill="#61A76A"/>
<path d="M545.388 222.094C547.791 221.594 550.359 219.505 553.052 215.876L552.312 215.423C549.28 219.517 546.49 221.515 544.039 221.319C539.994 221.019 538.004 214.891 537.985 214.829L537.104 215.161C537.186 215.434 539.262 221.855 543.873 222.196C544.369 222.24 544.876 222.201 545.388 222.094Z" fill="#61A76A"/>
<path d="M541.093 250.021C543.968 249.422 547.046 246.916 550.274 242.557L549.538 242.092C545.859 247.081 542.466 249.484 539.468 249.261C534.517 248.891 532.107 241.445 532.086 241.367L531.199 241.705C531.3 242.033 533.791 249.725 539.295 250.143C539.886 250.191 540.487 250.148 541.093 250.021Z" fill="#61A76A"/>
<path d="M539.493 266.978C542.366 266.38 545.45 263.878 548.682 259.519L547.946 259.059C544.257 264.039 540.86 266.452 537.869 266.222C532.915 265.854 530.516 258.411 530.489 258.334L529.605 258.666C529.701 258.985 532.194 266.687 537.701 267.1C538.289 267.147 538.887 267.104 539.493 266.978Z" fill="#61A76A"/>
<path d="M535.937 279.829C538.016 279.397 540.235 277.595 542.553 274.458L541.813 274.005C539.234 277.502 536.862 279.188 534.794 279.038C531.355 278.781 529.672 273.557 529.653 273.507L528.768 273.845C528.839 274.076 530.632 279.616 534.622 279.917C535.05 279.942 535.496 279.92 535.937 279.829Z" fill="#61A76A"/>
<path d="M388.156 280.338C389.683 280.244 446.812 283.317 452.641 290.203C458.471 297.089 440.983 380.943 434.181 386.615C427.381 392.286 387.061 391.476 387.061 391.476L388.156 280.338Z" fill="#4463CD"/>
<path d="M454.305 349.74C454.305 349.74 433.099 253.787 460.315 234.124C488.886 213.482 554.242 221.493 561.846 234.124C569.449 246.754 542.294 338.08 537.948 349.74H454.305Z" fill="#4463CD"/>
<path d="M435.295 347.096C435.295 347.096 409.294 244.111 441.305 231.481C473.315 218.85 535.233 218.85 542.836 231.481C550.44 244.112 523.284 335.438 518.939 347.096H435.295Z" fill="#5A7FE5"/>
<path d="M522.095 289.708C521.881 293.686 515.879 293.723 515.879 289.708C515.879 285.691 521.881 285.725 522.095 289.708C522.137 290.465 523.32 290.469 523.279 289.708C523.154 287.379 521.417 285.416 518.988 285.416C516.663 285.416 514.686 287.373 514.696 289.708C514.706 291.968 516.524 293.884 518.786 293.989C521.294 294.104 523.15 292.118 523.279 289.708C523.32 288.946 522.137 288.948 522.095 289.708Z" fill="#4463CD"/>
<path d="M388.237 379.656C387.823 379.799 377.053 405.229 385.473 405.667C393.892 406.105 398.936 381.942 398.936 381.942L388.237 379.656Z" fill="#53424D"/>
<path d="M426.128 379.656C425.714 379.799 414.944 405.229 423.364 405.667C431.783 406.105 436.826 381.942 436.826 381.942L426.128 379.656Z" fill="#53424D"/>
<path d="M478.948 379.656C479.361 379.799 490.132 405.229 481.712 405.667C473.291 406.105 468.248 381.942 468.248 381.942L478.948 379.656Z" fill="#53424D"/>
<path d="M527.554 378.199C527.968 378.341 538.738 403.773 530.318 404.21C521.897 404.647 516.855 380.485 516.855 380.485L527.554 378.199Z" fill="#53424D"/>
<path d="M371.646 292.854C372.95 287.226 377.091 282.606 382.632 280.975C386.148 279.939 390.043 279.729 392.404 282.506C404.549 296.789 396.039 391.85 396.039 391.85L372.488 391.476C372.488 391.476 365.282 320.322 371.646 292.854Z" fill="#5A7FE5"/>
<path d="M398.839 339.445L468.843 336.364L472.31 391.812L396.039 391.851L398.839 339.445Z" fill="#4463CD"/>
<path d="M396.364 244.473C396.364 244.473 396.266 246.112 396.366 246.368C397.9 250.304 409.39 286.177 420.632 284.653C437.27 282.398 411.738 257.17 402.432 245.626L396.364 244.473Z" fill="#CC8C71"/>
<path d="M434.181 254.953C432.923 256.286 413.504 275.148 415.383 281.682C416.216 284.58 421.527 286.898 429.068 280.882C437.054 274.511 449.583 258.849 441.323 257.201C438.754 256.688 434.181 254.953 434.181 254.953Z" fill="#CC8C71"/>
<path d="M445.038 235.597C458.426 228.025 473.815 230.487 477.432 233.683C479.484 235.497 464.113 235.122 462.737 238.526C460.32 244.503 448.587 262.684 438.865 271.739C435.531 274.845 422.14 265.851 426.038 259.242C431.155 250.567 437.883 239.644 445.038 235.597Z" fill="#FF4650"/>
<path d="M498.331 238.843C498.331 238.843 494.704 240.403 494.705 246.576C491.433 251.862 492.599 266.85 492.324 271.481C490.61 300.32 504.653 295.655 502.288 300.944C498.043 310.442 435.236 303.911 437.585 293.992C447.783 250.934 430.506 243.526 452.404 232.57C460.201 228.668 491.038 230.13 498.331 238.843Z" fill="#FF4650"/>
<path d="M407.112 256.447C407.112 256.447 401.198 242.351 400.395 241.222C395.248 233.981 394.15 229.332 393.181 230.906C391.398 233.804 395.269 243.577 395.822 245.051C396.507 246.856 398.596 251.254 399.513 252.686C400.43 254.119 407.112 256.447 407.112 256.447Z" fill="#CC8C71"/>
<path d="M490.013 256.166C491.334 257.594 498.75 290.598 506.724 289.686C516.888 288.525 513.8 272.074 508.083 263.656C502.028 254.742 493.896 244.331 489.93 247.747C487.703 249.666 490.013 256.166 490.013 256.166Z" fill="#CC8C71"/>
<path d="M481.912 245.763C480.509 240.294 473.405 236.645 478.171 235.241C480.874 234.444 489.7 231.142 497.268 237.559C506.196 245.13 507.227 252.942 513.377 264.513C515.438 268.389 496.454 277.862 492.977 271.156C487.808 261.191 485.018 257.871 481.912 245.763Z" fill="#FF4650"/>
<path d="M463.181 253.587C460.103 254.025 458.792 248.461 458.792 248.461L483.924 232.259C483.924 232.259 481.126 251.033 463.181 253.587Z" fill="#FDFEFD"/>
<path d="M453.086 251.882C456.681 252.882 458.792 248.461 458.792 248.461L454.367 231.743L449.795 233.338C449.795 233.338 443.032 249.086 453.086 251.882Z" fill="#FDFEFD"/>
<path d="M449.795 233.338C449.795 233.338 467.762 225.454 483.924 232.259L458.792 248.461L449.795 233.338Z" fill="#FDFEFD"/>
<path d="M478.894 230.6C478.894 230.6 473.259 248.332 459.711 248.488C453.416 248.562 451.362 243.618 454.833 238.781C458.251 234.023 478.894 230.6 478.894 230.6Z" fill="#CC8C71"/>
<path d="M387.567 301.632C387.32 306.229 380.388 306.269 380.388 301.632C380.388 296.993 387.32 297.033 387.567 301.632C387.623 302.661 389.229 302.668 389.174 301.632C389.022 298.814 386.918 296.436 383.978 296.436C381.162 296.436 378.769 298.808 378.783 301.632C378.795 304.371 380.999 306.692 383.739 306.815C386.772 306.952 389.019 304.549 389.176 301.632C389.23 300.599 387.623 300.601 387.567 301.632Z" fill="#4463CD"/>
<path d="M379.36 391.207C375.919 363.09 372.708 333.352 375.997 305.117C376.523 300.606 377.402 288.247 383.069 286.617C389.156 284.868 390.585 295.632 391.266 299.654C394.206 317.042 393.121 335.4 392.257 352.922C391.622 365.818 390.446 378.652 389.418 391.516C389.336 392.547 390.944 392.543 391.026 391.516C392.107 377.984 393.334 364.483 393.96 350.914C394.799 332.722 396.59 312.354 391.855 294.524C389.995 287.524 384.193 280.083 378.533 288.903C375.006 294.4 374.589 302.3 374.045 308.613C373.116 319.375 373.299 330.244 373.717 341.027C374.366 357.782 375.716 374.562 377.753 391.207C377.877 392.22 379.485 392.233 379.36 391.207Z" fill="#4463CD"/>
<path d="M528.298 242.938C528.084 246.918 522.082 246.954 522.082 242.938C522.082 238.922 528.083 238.956 528.298 242.938C528.338 243.697 529.523 243.701 529.482 242.938C529.357 240.611 527.62 238.646 525.191 238.646C522.864 238.646 520.889 240.605 520.899 242.938C520.909 245.199 522.727 247.115 524.989 247.22C527.497 247.335 529.353 245.35 529.482 242.938C529.523 242.178 528.338 242.179 528.298 242.938Z" fill="#4463CD"/>
<path d="M466.764 307.342C466.764 307.342 468.543 307.464 468.815 307.363C472.999 305.805 522.264 292.224 511.979 277.303C504.223 266.053 479.728 291.387 467.703 300.996L466.764 307.342Z" fill="#CC8C71"/>
<path d="M480.665 295.32C480.665 295.32 464.685 301.752 463.421 302.638C455.327 308.304 450.009 309.469 451.882 310.576C455.33 312.611 466.423 308.408 468.097 307.809C470.148 307.066 475.121 304.785 476.726 303.778C478.334 302.77 480.665 295.32 480.665 295.32Z" fill="#CC8C71"/>
<path d="M454.391 238.358C453.852 238.897 452.978 238.897 452.44 238.358C451.901 237.82 451.901 236.945 452.44 236.406C452.978 235.868 453.852 235.868 454.391 236.406C454.93 236.945 454.93 237.82 454.391 238.358Z" fill="#FEA603"/>
<path d="M455.234 236.013C454.695 236.552 453.821 236.552 453.282 236.013C452.743 235.476 452.743 234.601 453.282 234.062C453.821 233.523 454.696 233.523 455.234 234.062C455.771 234.601 455.771 235.476 455.234 236.013Z" fill="#FEA603"/>
<path d="M456.613 233.607C456.074 234.147 455.201 234.147 454.661 233.607C454.123 233.069 454.123 232.195 454.661 231.657C455.201 231.118 456.074 231.118 456.613 231.657C457.152 232.195 457.152 233.069 456.613 233.607Z" fill="#FEA603"/>
<path d="M476.721 229.66C476.181 230.2 475.308 230.2 474.768 229.66C474.231 229.123 474.231 228.248 474.768 227.709C475.307 227.17 476.181 227.17 476.721 227.709C477.259 228.248 477.259 229.123 476.721 229.66Z" fill="#FEA603"/>
<path d="M440.775 199.356C443.817 193.03 449.089 189.876 455.175 188.448C459.161 187.517 469.452 188.464 474.546 198.273C483.257 215.048 482.715 216.122 482.715 216.122C474.127 220.816 447.694 229.944 446.357 228.54C438.871 220.611 433.858 213.739 440.775 199.356Z" fill="#53424D"/>
<path d="M453.415 241.669C453.415 241.669 456.914 232.472 454.367 223.472C453.726 221.207 457.108 219.85 456.009 218.96C454.914 218.069 465.921 212.084 465.921 212.084C465.921 212.084 468.474 226.254 478.895 230.6L453.415 241.669Z" fill="#CC8C71"/>
<path d="M454.771 224.972C453.848 222.242 455.805 218.421 454.46 217.331C453.12 216.24 466.589 208.918 466.589 208.918C466.589 208.918 465.495 212.427 466.586 216.866C463.342 223.525 458.896 226.876 455.227 229.047L454.771 224.972Z" fill="#BF7C64"/>
<path d="M449.52 193.822C445.534 199.15 439.348 218.567 449.843 225.189C454.326 228.019 464.338 220.901 468.501 211.127C470.216 207.117 468.962 199.111 464.281 192.832C462.173 189.985 454.086 187.587 449.52 193.822Z" fill="#CC8C71"/>
<path d="M443.479 202.9C444.767 204.471 444.42 201.687 448.303 199.228C448.776 198.927 449.328 198.705 449.857 198.506C450.304 198.338 450.782 198.208 451.263 198.218C452.303 198.236 452.956 198.996 453.284 199.922C453.988 201.936 455.391 203.269 457.06 204.522C458.884 205.89 460.501 207.328 461.531 209.41C461.834 210.027 462.008 210.64 462.447 211.157C462.992 211.791 463.388 212.543 463.603 213.356C463.809 214.14 463.842 214.96 463.985 215.757C464.205 216.965 464.663 217.687 465.722 218.223C466.145 218.442 466.593 218.602 467.055 218.716C468.007 218.957 469.014 218.985 469.976 218.793C472.216 218.343 473.909 216.704 474.672 214.581C475.973 210.95 474.929 206.74 473.691 203.251C472.811 200.778 471.687 198.393 470.443 196.089C469.285 193.947 467.508 192.287 465.321 191.169C462.454 189.701 459.071 189.254 455.9 189.657C454.285 189.863 452.692 190.29 451.196 190.946C444.103 194.073 442.459 201.664 443.479 202.9Z" fill="#53424D"/>
<path d="M461.741 211.874C461.741 211.874 464.967 207.154 467.495 207.654C470.031 208.161 468.365 215.265 463.461 215.555C458.57 215.844 460.718 213.187 461.741 211.874Z" fill="#CC8C71"/>
<path d="M476.568 229.05C477.127 228.532 477.999 228.565 478.518 229.124C479.036 229.683 479.003 230.556 478.444 231.074C477.884 231.592 477.012 231.559 476.494 230.999C475.977 230.441 476.01 229.568 476.568 229.05Z" fill="#FEA603"/>
<path d="M475.189 231.246C475.747 230.728 476.62 230.762 477.138 231.321C477.656 231.879 477.623 232.752 477.064 233.271C476.505 233.789 475.632 233.756 475.114 233.197C474.596 232.638 474.629 231.764 475.189 231.246Z" fill="#FEA603"/>
<path d="M475.722 235.358C475.183 235.897 474.31 235.897 473.771 235.358C473.232 234.819 473.232 233.946 473.771 233.407C474.31 232.868 475.184 232.868 475.722 233.407C476.262 233.946 476.262 234.819 475.722 235.358Z" fill="#FEA603"/>
<path d="M474.008 237.394C473.469 237.933 472.595 237.933 472.057 237.394C471.518 236.855 471.518 235.982 472.057 235.443C472.595 234.903 473.469 234.903 474.008 235.443C474.547 235.982 474.547 236.855 474.008 237.394Z" fill="#FEA603"/>
<path d="M472.116 239.286C471.577 239.825 470.702 239.825 470.163 239.286C469.626 238.747 469.626 237.874 470.163 237.335C470.702 236.796 471.577 236.796 472.116 237.335C472.654 237.875 472.654 238.748 472.116 239.286Z" fill="#FEA603"/>
<path d="M469.787 240.52C469.248 241.058 468.375 241.058 467.836 240.52C467.297 239.982 467.297 239.108 467.836 238.568C468.375 238.03 469.248 238.03 469.787 238.568C470.326 239.108 470.326 239.981 469.787 240.52Z" fill="#FEA603"/>
<path d="M467.479 241.573C466.939 242.112 466.067 242.112 465.527 241.573C464.988 241.034 464.988 240.16 465.527 239.622C466.066 239.083 466.939 239.083 467.479 239.622C468.017 240.161 468.017 241.034 467.479 241.573Z" fill="#FEA603"/>
<path d="M465.184 242.862C464.645 243.402 463.772 243.402 463.232 242.862C462.694 242.323 462.694 241.449 463.232 240.911C463.772 240.371 464.645 240.371 465.184 240.911C465.722 241.449 465.722 242.323 465.184 242.862Z" fill="#FEA603"/>
<path d="M462.622 243.287C462.083 243.826 461.209 243.826 460.67 243.287C460.132 242.748 460.132 241.875 460.67 241.336C461.209 240.797 462.083 240.797 462.622 241.336C463.159 241.875 463.159 242.748 462.622 243.287Z" fill="#FEA603"/>
<path d="M459.978 242.953C459.44 243.492 458.565 243.492 458.028 242.953C457.488 242.414 457.488 241.54 458.028 241.002C458.567 240.463 459.44 240.463 459.978 241.002C460.518 241.54 460.518 242.414 459.978 242.953Z" fill="#FEA603"/>
<path d="M457.437 242.26C456.899 242.798 456.025 242.798 455.485 242.26C454.946 241.72 454.946 240.847 455.485 240.308C456.024 239.769 456.897 239.769 457.437 240.308C457.975 240.847 457.975 241.72 457.437 242.26Z" fill="#FEA603"/>
<path d="M455.342 240.667C454.805 241.205 453.93 241.205 453.392 240.667C452.852 240.128 452.852 239.255 453.392 238.715C453.931 238.176 454.805 238.176 455.342 238.715C455.881 239.254 455.881 240.128 455.342 240.667Z" fill="#FEA603"/>
<path d="M491.051 263.363C490.506 265.635 490.382 268.371 491.612 270.437C492.187 271.403 493.7 270.524 493.122 269.554C492.14 267.903 492.303 265.641 492.739 263.828C493.002 262.734 491.316 262.267 491.051 263.363Z" fill="#ED3748"/>
<path d="M440.26 263.486C440.702 265.292 440.877 267.56 439.902 269.213C439.329 270.186 440.842 271.066 441.413 270.096C442.636 268.023 442.503 265.291 441.948 263.02C441.68 261.928 439.991 262.39 440.26 263.486Z" fill="#ED3748"/>
<path d="M456.646 210.872C456.726 210.769 456.552 210.975 456.518 211.008C456.371 211.149 456.223 211.281 456.044 211.384C455.361 211.778 454.82 211.458 454.373 210.931C454.092 210.601 453.593 211.087 453.873 211.416C454.865 212.583 456.309 212.397 457.244 211.203C457.519 210.852 456.918 210.524 456.646 210.872Z" fill="#1E100C"/>
<path d="M448.942 211.554C448.846 211.788 448.696 212.029 448.526 212.22C447.968 212.843 447.378 212.593 446.838 212.088C446.521 211.791 446.019 212.275 446.339 212.573C446.975 213.168 447.814 213.578 448.648 213.011C449.097 212.704 449.414 212.211 449.611 211.725C449.778 211.317 449.107 211.15 448.942 211.554Z" fill="#1E100C"/>
<path d="M446.317 208.847C447.257 208.156 448.327 208.298 449.153 209.111C449.539 209.49 450.083 208.849 449.699 208.472C448.608 207.4 447.097 207.232 445.838 208.157C445.404 208.476 445.88 209.168 446.317 208.847Z" fill="#552B19"/>
<path d="M453.606 208.607C454.325 207.687 455.393 207.535 456.408 208.092C456.883 208.353 457.232 207.588 456.761 207.33C455.42 206.594 453.921 206.841 452.959 208.072C452.627 208.498 453.274 209.034 453.606 208.607Z" fill="#552B19"/>
<path d="M451.061 209.904C451.508 210.532 451.881 211.307 451.909 212.078C451.95 213.204 450.947 214.046 450.596 215.103C450.113 216.555 451.21 216.956 452.753 216.882C453.127 216.864 453.145 216.378 452.774 216.397C449.315 216.563 452.449 213.7 452.489 212.22C452.513 211.294 452.103 210.372 451.57 209.622C451.388 209.367 450.879 209.648 451.061 209.904Z" fill="#BF7C64"/>
<path d="M455.858 217.326C455.858 217.326 456.987 219.984 454.729 220.765C452.469 221.547 451.388 219.187 451.388 219.187L455.858 217.326Z" fill="#FAFFFF"/>
<path d="M459.899 215.183C459.899 216.082 459.17 216.812 458.269 216.812C457.368 216.812 456.638 216.082 456.638 215.183C456.638 214.282 457.368 213.552 458.269 213.552C459.169 213.552 459.899 214.282 459.899 215.183Z" fill="#C1775D"/>
<path d="M445.658 215.749C446.15 214.981 447.17 214.756 447.938 215.247C448.706 215.739 448.93 216.759 448.439 217.527C447.949 218.294 446.928 218.519 446.16 218.028C445.392 217.537 445.168 216.516 445.658 215.749Z" fill="#C1775D"/>
<path d="M464.349 214.461C466.173 215.85 469.84 219.749 465.554 220.619C462.505 221.24 463.221 217.434 463.797 215.647C463.935 215.219 463.262 215.036 463.124 215.463C462.271 218.113 462.227 222.514 466.247 221.145C470.623 219.654 466.882 215.52 464.7 213.858C464.345 213.586 463.997 214.192 464.349 214.461Z" fill="#FEA603"/>
<path d="M434.439 391.988C434.439 391.988 436.396 401.953 435.694 403.576C433.605 408.416 416.39 411.089 410.25 408.537C409.391 408.179 408.4 406.736 409.939 404.625C411.479 402.513 420.922 398.983 419.838 394.882C418.757 390.783 434.439 391.988 434.439 391.988Z" fill="#53424D"/>
<path d="M394.774 364.757C394.774 364.757 392.889 374.736 391.635 375.984C387.897 379.701 370.921 375.787 366.168 371.137C365.503 370.487 365.119 368.778 367.333 367.39C369.547 366.002 379.625 366.231 380.143 362.022C380.661 357.814 394.774 364.757 394.774 364.757Z" fill="#53424D"/>
<path d="M444.833 317.009L438.2 395.653C438.2 395.653 426.959 400.419 417.426 395.653L409.084 328.776L423.979 309.787L444.833 317.009Z" fill="#E08B03"/>
<path d="M498.455 309.787C498.455 309.787 503.817 347.989 477.006 346.202C450.196 344.415 436.492 319.391 426.96 321.774C417.427 324.158 397.17 370.629 397.17 370.629C397.17 370.629 387.638 373.012 377.51 362.884C377.51 362.884 388.83 304.497 409.683 290.198C430.534 275.899 498.455 309.787 498.455 309.787Z" fill="#FEB801"/>
<path d="M483.272 287.29C484.98 287.201 552.335 289.284 558.853 295.812C565.37 302.34 545.818 381.829 538.213 387.206C530.609 392.581 485.53 391.813 485.53 391.813L483.272 287.29Z" fill="#4463CD"/>
<path d="M468.289 298.344C469.707 293.146 474.194 288.987 480.021 287.776C483.731 287.006 488.063 286.776 491.504 288.515C499.108 292.355 494.248 391.85 494.248 391.85L469.236 391.812C469.236 391.812 461.184 324.397 468.289 298.344Z" fill="#5A7FE5"/>
<path d="M483.785 308.972C483.563 313.09 477.354 313.127 477.354 308.972C477.353 304.816 483.563 304.852 483.785 308.972C483.84 310.002 485.448 310.008 485.392 308.972C485.251 306.357 483.298 304.15 480.569 304.15C477.948 304.15 475.747 306.351 475.747 308.972C475.747 311.515 477.815 313.671 480.35 313.782C483.164 313.908 485.246 311.678 485.392 308.972C485.448 307.939 483.84 307.942 483.785 308.972Z" fill="#4463CD"/>
<path d="M476.047 391.229C472.637 365.318 469.488 337.769 472.623 311.72C473.167 307.194 474.085 295.659 479.709 294.091C485.97 292.345 487.434 303.009 488.128 307.204C490.798 323.37 489.778 340.379 488.888 356.656C488.251 368.307 487.115 379.898 486.105 391.518C486.016 392.547 487.623 392.541 487.712 391.518C488.807 378.904 490.024 366.325 490.652 353.673C491.485 336.871 493.248 317.758 488.539 301.34C486.573 294.486 480.819 288.029 475.236 296.104C467.019 307.985 469.839 330.238 470.363 343.599C470.989 359.507 472.363 375.444 474.439 391.23C474.573 392.24 476.182 392.253 476.047 391.229Z" fill="#4463CD"/>
<path d="M273.478 96.9788H179.92C178.307 96.9788 176.987 95.6586 176.987 94.0453V60.0154C176.987 58.4022 178.307 57.0808 179.92 57.0808H273.478C275.092 57.0808 276.412 58.4011 276.412 60.0143V94.0442C276.413 95.6586 275.093 96.9788 273.478 96.9788Z" fill="#FEB801"/>
<path d="M209.446 95.0879V107.656L228.445 95.0879H209.446Z" fill="#FEB801"/>
<path d="M211.757 77.7031C211.757 81.058 209.038 83.7775 205.683 83.7775C202.329 83.7775 199.609 81.058 199.609 77.7031C199.609 74.3482 202.328 71.6287 205.683 71.6287C209.037 71.6287 211.757 74.3471 211.757 77.7031Z" fill="#E08B03"/>
<path d="M231.865 77.7031C231.865 81.058 229.146 83.7775 225.791 83.7775C222.436 83.7775 219.716 81.058 219.716 77.7031C219.716 74.3482 222.436 71.6287 225.791 71.6287C229.146 71.6287 231.865 74.3471 231.865 77.7031Z" fill="#E08B03"/>
<path d="M251.974 77.7031C251.974 81.058 249.254 83.7775 245.899 83.7775C242.544 83.7775 239.825 81.058 239.825 77.7031C239.825 74.3482 242.544 71.6287 245.899 71.6287C249.254 71.6287 251.974 74.3471 251.974 77.7031Z" fill="#E08B03"/>
<path d="M499.939 154.347H448.792C446.152 154.347 444.013 152.207 444.013 149.569V89.5392C444.013 86.8998 446.152 84.7609 448.792 84.7609H499.939C502.578 84.7609 504.717 86.8998 504.717 89.5392V149.569C504.717 152.207 502.577 154.347 499.939 154.347Z" fill="#FEA603"/>
<path d="M496.438 92.0875H451.433V146.468H496.438V92.0875Z" fill="#FAFFFF"/>
<path d="M493.881 94.8148H454.161V143.911H493.881V94.8148Z" fill="#8CC3FB"/>
<path d="M454.161 131.977L464.219 122.601L472.742 133.511L476.493 129.42L481.265 133.511L493.881 106.236V143.911H454.161V131.977Z" fill="#517DD8"/>
<path d="M471.634 106.96C471.634 109.714 469.402 111.947 466.647 111.947C463.894 111.947 461.661 109.715 461.661 106.96C461.661 104.207 463.894 101.974 466.647 101.974C469.402 101.974 471.634 104.207 471.634 106.96Z" fill="#EEC259"/>
<path d="M34.627 251.518C34.627 251.518 24.6632 249.466 23.3583 251.568C23.3583 251.568 23.1454 390.478 23.7369 420.564C23.7369 420.564 32.1291 423.323 35.01 420.508L34.627 251.518Z" fill="#F2D2A9"/>
<path d="M92.0338 253.063C92.0338 253.063 82.0699 251.032 80.7651 253.118C80.7651 253.118 80.55 390.802 81.1393 420.623C81.1393 420.623 89.5359 423.36 92.4091 420.571L92.0338 253.063Z" fill="#F2D2A9"/>
<path d="M34.8541 351.648C34.8541 351.648 24.8958 351.489 23.5854 351.701C23.5854 351.701 23.0937 365.222 23.6227 368.153C23.6227 368.153 32.0106 368.386 34.8914 368.1L34.8541 351.648Z" fill="#E3BD91"/>
<path d="M92.2598 350.819C92.2598 350.819 82.2982 350.66 80.9878 350.869C80.9878 350.869 80.4962 364.396 81.0251 367.324C81.0251 367.324 89.4119 367.554 92.2949 367.268L92.2598 350.819Z" fill="#E3BD91"/>
<path d="M34.7301 296.619C34.7301 296.619 24.7728 296.423 23.4603 296.67C23.4603 296.67 22.973 312.605 23.5042 316.055C23.5042 316.055 31.892 316.335 34.774 316.003L34.7301 296.619Z" fill="#E3BD91"/>
<path d="M92.1314 295.691C92.1314 295.691 82.1709 295.494 80.8616 295.74C80.8616 295.74 80.3711 311.675 80.9033 315.126C80.9033 315.126 89.2912 315.409 92.1731 315.073L92.1314 295.691Z" fill="#E3BD91"/>
<path d="M34.7301 246.75C34.7301 246.75 24.7728 246.553 23.4603 246.803C23.4603 246.803 22.973 262.734 23.5042 266.185C23.5042 266.185 31.892 266.468 34.774 266.135L34.7301 246.75Z" fill="#E3BD91"/>
<path d="M92.1314 245.819C92.1314 245.819 82.1709 245.626 80.8616 245.875C80.8616 245.875 80.3711 261.807 80.9033 265.261C80.9033 265.261 89.2912 265.54 92.1731 265.205L92.1314 245.819Z" fill="#E3BD91"/>
<path d="M19.335 347.233C19.335 347.233 18.3802 361.655 19.335 363.554C19.335 363.554 82.4607 364.314 96.135 363.554C96.135 363.554 97.4069 351.41 96.135 347.233H19.335Z" fill="#F2D2A9"/>
<path d="M19.335 398.846C19.335 398.846 18.3802 413.268 19.335 415.163C19.335 415.163 82.4607 415.926 96.135 415.163C96.135 415.163 97.4069 403.024 96.135 398.846H19.335Z" fill="#F2D2A9"/>
<path d="M19.335 295.62C19.335 295.62 18.3802 310.041 19.335 311.936C19.335 311.936 82.4607 312.696 96.135 311.936C96.135 311.936 97.4069 299.789 96.135 295.62H19.335Z" fill="#F2D2A9"/>
<path d="M36.7121 302.449C36.7121 302.452 37.2279 302.073 38.2156 301.736C38.7051 301.573 39.3229 301.3 40.0154 301.212C40.7123 301.094 41.5036 301.016 42.3684 300.935C44.098 300.721 46.0986 301.258 48.2025 301.865C50.2591 302.528 52.5385 302.768 54.8102 302.625C55.9439 302.506 57.0743 302.36 58.1816 302.345C59.2846 302.323 60.3722 302.308 61.4235 302.286C63.5394 302.177 65.5071 302.292 67.2016 302.457C68.8939 302.599 70.3096 302.79 71.3017 302.948C72.2916 303.13 72.8634 303.275 72.8634 303.275L72.8678 303.531C72.8678 303.531 72.307 303.718 71.3204 303.973C70.3348 304.191 68.9202 304.531 67.2203 304.743C65.5214 304.911 63.5306 305.041 61.4016 304.943C60.3348 304.834 59.2308 304.719 58.1048 304.603C56.9843 304.495 55.855 304.249 54.7279 304.024C53.6085 303.759 52.4924 303.438 51.3818 303.326C50.2657 303.18 49.188 303.165 48.0883 303.236C47.0282 303.273 46.0054 303.389 45.0473 303.326C44.0892 303.28 43.1882 303.083 42.3563 303.109C41.5233 303.059 40.7584 303.009 40.0769 302.916C39.3899 302.829 38.8192 302.869 38.321 302.8C37.8271 302.748 37.4331 302.71 37.161 302.726C36.8899 302.71 36.7417 302.7 36.7417 302.7L36.7121 302.449Z" fill="#E3BD91"/>
<path d="M47.7712 305.64C47.7712 305.64 47.9665 305.447 48.3704 305.339C48.7765 305.186 49.3713 305.074 50.0671 305.164C50.4128 305.211 50.8035 305.196 51.1777 305.404C51.5596 305.572 51.9481 305.838 52.3498 306.065C52.7547 306.321 53.1498 306.529 53.5833 306.682C54.0146 306.838 54.4635 306.965 54.9134 306.943C55.8046 306.972 56.6902 307.002 57.5232 307.031C58.3594 307.031 59.1375 307.106 59.8103 307.193C61.1525 307.33 62.0677 307.561 62.0677 307.561L62.0743 307.692C62.0743 307.692 61.1887 308.127 59.819 308.312C59.1375 308.43 58.332 308.461 57.476 308.356C57.0491 308.293 56.6068 308.203 56.1623 308.106C55.7157 308.028 55.2547 307.817 54.8135 307.63C53.9367 307.269 53.0741 306.796 52.2192 306.734C51.7988 306.656 51.395 306.622 51.0251 306.51C50.6564 306.364 50.3052 306.329 49.9837 306.252C49.661 306.167 49.3625 306.093 49.098 305.991C48.8401 305.948 48.6107 305.931 48.4176 305.875C48.028 305.763 47.7832 305.791 47.7865 305.769L47.7712 305.64Z" fill="#E3BD91"/>
<path d="M45.3326 353.139C45.3326 353.139 45.8462 352.76 46.835 352.429C47.3256 352.264 47.9435 351.994 48.6359 351.903C49.3339 351.782 50.1241 351.706 50.9867 351.625C52.7163 351.408 54.7159 351.949 56.8208 352.557C58.8796 353.223 61.1601 353.46 63.4308 353.319C64.5644 353.198 65.6959 353.052 66.8 353.036C67.904 353.014 68.9927 352.999 70.0418 352.98C72.1577 352.868 74.1277 352.987 75.8188 353.148C77.5144 353.291 78.9268 353.482 79.9189 353.643C80.9121 353.821 81.4817 353.964 81.4817 353.964L81.4883 354.219C81.4883 354.219 80.9275 354.412 79.942 354.665C78.9543 354.88 77.5429 355.225 75.8419 355.431C74.1408 355.605 72.15 355.733 70.0221 355.634C68.9543 355.525 67.8491 355.412 66.7275 355.3C65.6048 355.185 64.4766 354.939 63.3473 354.714C62.2279 354.453 61.114 354.129 60.0012 354.016C58.8884 353.87 57.8074 353.855 56.7077 353.926C55.6487 353.964 54.627 354.075 53.6667 354.016C52.7119 353.972 51.8087 353.77 50.9768 353.798C50.1439 353.745 49.3789 353.698 48.6941 353.601C48.0126 353.514 47.4386 353.558 46.9415 353.493C46.4476 353.44 46.0536 353.399 45.7815 353.412C45.5104 353.396 45.3644 353.39 45.3644 353.39L45.3326 353.139Z" fill="#E3BD91"/>
<path d="M56.3895 356.332C56.3895 356.332 56.5892 356.142 56.9909 356.03C57.397 355.878 57.9951 355.762 58.6887 355.859C59.0355 355.905 59.4262 355.893 59.8004 356.096C60.1812 356.261 60.5697 356.526 60.9714 356.759C61.3774 357.015 61.7714 357.223 62.2049 357.369C62.6362 357.525 63.0851 357.655 63.5361 357.634C64.4218 357.665 65.314 357.693 66.147 357.718C66.9811 357.724 67.7591 357.799 68.4308 357.886C69.7752 358.02 70.6883 358.25 70.6883 358.25L70.6959 358.381C70.6959 358.381 69.8081 358.817 68.4418 359.004C67.758 359.126 66.9536 359.15 66.0965 359.045C65.6696 358.982 65.2273 358.889 64.7796 358.799C64.3373 358.721 63.8774 358.506 63.4341 358.319C62.5572 357.958 61.6979 357.488 60.8408 357.42C60.4237 357.345 60.0166 357.311 59.6489 357.196C59.2802 357.053 58.9268 357.018 58.6031 356.94C58.2826 356.855 57.9852 356.779 57.7185 356.675C57.4617 356.633 57.2323 356.619 57.0381 356.564C56.6474 356.448 56.4027 356.482 56.4071 356.458L56.3895 356.332Z" fill="#E3BD91"/>
<path d="M35.382 404.756C35.382 404.756 35.8956 404.377 36.8833 404.043C37.3739 403.878 37.9917 403.607 38.6842 403.517C39.3822 403.395 40.1713 403.324 41.035 403.243C42.7679 403.028 44.7652 403.567 46.8713 404.17C48.9279 404.833 51.2106 405.077 53.4779 404.933C54.6149 404.811 55.7464 404.665 56.8504 404.65C57.9578 404.631 59.041 404.612 60.0901 404.594C62.2027 404.485 64.176 404.603 65.8704 404.762C67.5616 404.904 68.9762 405.099 69.9672 405.257C70.9604 405.434 71.5322 405.58 71.5322 405.58L71.5388 405.835C71.5388 405.835 70.9769 406.025 69.9925 406.277C69.0037 406.496 67.5934 406.838 65.8913 407.047C64.188 407.218 62.1994 407.348 60.0736 407.246C59.0036 407.141 57.8985 407.029 56.7769 406.913C55.6564 406.797 54.5238 406.555 53.3978 406.33C52.2762 406.065 51.1623 405.744 50.0517 405.633C48.9323 405.484 47.8557 405.467 46.7582 405.543C45.6948 405.577 44.672 405.692 43.7139 405.633C42.7569 405.586 41.8559 405.384 41.0251 405.415C40.1921 405.362 39.4261 405.312 38.7457 405.218C38.0587 405.13 37.4858 405.171 36.9876 405.11C36.4937 405.054 36.0997 405.016 35.8308 405.028C35.5565 405.013 35.4116 405.006 35.4116 405.006L35.382 404.756Z" fill="#E3BD91"/>
<path d="M46.4366 407.945C46.4366 407.945 46.6331 407.758 47.0359 407.645C47.4441 407.489 48.0378 407.377 48.7347 407.477C49.0815 407.521 49.4689 407.503 49.8465 407.711C50.2295 407.879 50.6136 408.141 51.0174 408.372C51.4224 408.624 51.8164 408.838 52.2521 408.985C52.6834 409.138 53.13 409.272 53.5822 409.248C54.4711 409.278 55.359 409.31 56.1919 409.334C57.0282 409.338 57.8063 409.415 58.4779 409.499C59.8201 409.636 60.7365 409.867 60.7365 409.867L60.742 409.997C60.742 409.997 59.8563 410.431 58.4889 410.617C57.8063 410.738 57.0019 410.763 56.1436 410.66C55.7156 410.597 55.2745 410.501 54.8278 410.411C54.3844 410.333 53.9235 410.121 53.4812 409.935C52.6066 409.574 51.744 409.1 50.8868 409.035C50.4676 408.957 50.0615 408.923 49.6928 408.811C49.324 408.665 48.9751 408.63 48.6524 408.552C48.3265 408.467 48.0302 408.393 47.7668 408.291C47.5078 408.247 47.2773 408.231 47.0863 408.175C46.6956 408.067 46.4509 408.094 46.4509 408.07L46.4366 407.945Z" fill="#E3BD91"/>
<path d="M30.9406 354.336C30.9406 355.326 30.202 356.123 29.29 356.123C28.378 356.123 27.6372 355.327 27.6372 354.336C27.6372 353.349 28.3769 352.548 29.29 352.548C30.2031 352.548 30.9406 353.349 30.9406 354.336Z" fill="#E3BD91"/>
<path d="M30.9406 405.005C30.9406 405.749 30.202 406.347 29.29 406.347C28.378 406.347 27.6372 405.749 27.6372 405.005C27.6372 404.267 28.3769 403.666 29.29 403.666C30.2031 403.666 30.9406 404.267 30.9406 405.005Z" fill="#E3BD91"/>
<path d="M30.9406 302.642C30.9406 303.418 30.202 304.047 29.29 304.047C28.378 304.047 27.6372 303.418 27.6372 302.642C27.6372 301.866 28.3769 301.237 29.29 301.237C30.2031 301.237 30.9406 301.866 30.9406 302.642Z" fill="#E3BD91"/>
<path d="M19.335 245.75C19.335 245.75 18.3802 260.172 19.335 262.068C19.335 262.068 82.4607 262.831 96.135 262.068C96.135 262.068 97.4069 249.924 96.135 245.75H19.335Z" fill="#F2D2A9"/>
<path d="M36.7121 252.579C36.7121 252.583 37.2279 252.206 38.2156 251.869C38.7051 251.705 39.3229 251.434 40.0154 251.344C40.7123 251.225 41.5036 251.147 42.3684 251.069C44.098 250.854 46.0986 251.393 48.2025 252C50.2591 252.664 52.5385 252.907 54.8102 252.759C55.9439 252.638 57.0743 252.492 58.1816 252.476C59.2846 252.458 60.3722 252.439 61.4235 252.424C63.5394 252.312 65.5071 252.427 67.2016 252.588C68.8939 252.731 70.3096 252.922 71.3017 253.086C72.2916 253.261 72.8634 253.407 72.8634 253.407L72.8678 253.662C72.8678 253.662 72.307 253.851 71.3204 254.104C70.3348 254.322 68.9202 254.665 67.2203 254.873C65.5214 255.041 63.5306 255.173 61.4016 255.076C60.3348 254.968 59.2308 254.852 58.1048 254.74C56.9843 254.628 55.855 254.379 54.7279 254.158C53.6085 253.893 52.4924 253.569 51.3818 253.461C50.2657 253.315 49.188 253.295 48.0883 253.367C47.0282 253.405 46.0054 253.52 45.0473 253.461C44.0892 253.414 43.1882 253.215 42.3563 253.239C41.5233 253.19 40.7584 253.139 40.0769 253.049C39.3899 252.959 38.8192 253 38.321 252.934C37.8271 252.878 37.4331 252.844 37.161 252.856C36.8899 252.841 36.7417 252.834 36.7417 252.834L36.7121 252.579Z" fill="#E3BD91"/>
<path d="M47.7712 255.774C47.7712 255.774 47.9665 255.584 48.3704 255.469C48.7765 255.317 49.3713 255.205 50.0671 255.298C50.4128 255.342 50.8035 255.329 51.1777 255.535C51.5596 255.703 51.9481 255.969 52.3498 256.199C52.7547 256.451 53.1498 256.66 53.5833 256.812C54.0146 256.968 54.4635 257.099 54.9134 257.075C55.8046 257.103 56.6902 257.137 57.5232 257.165C58.3594 257.165 59.1375 257.239 59.8103 257.324C61.1525 257.464 62.0677 257.695 62.0677 257.695L62.0743 257.822C62.0743 257.822 61.1887 258.258 59.819 258.442C59.1375 258.564 58.332 258.591 57.476 258.488C57.0491 258.426 56.6068 258.332 56.1623 258.239C55.7157 258.161 55.2547 257.946 54.8135 257.763C53.9367 257.399 53.0741 256.925 52.2192 256.863C51.7988 256.785 51.395 256.751 51.0251 256.639C50.6564 256.493 50.3052 256.459 49.9837 256.381C49.661 256.297 49.3625 256.222 49.098 256.12C48.8401 256.076 48.6107 256.061 48.4176 256.005C48.028 255.893 47.7832 255.924 47.7865 255.898L47.7712 255.774Z" fill="#E3BD91"/>
<path d="M30.9406 252.773C30.9406 253.552 30.202 254.181 29.29 254.181C28.378 254.181 27.6372 253.552 27.6372 252.773C27.6372 251.998 28.3769 251.368 29.29 251.368C30.2031 251.368 30.9406 251.997 30.9406 252.773Z" fill="#E3BD91"/>
<path d="M88.3342 354.336C88.3342 355.326 87.5967 356.123 86.6847 356.123C85.7705 356.123 85.0309 355.327 85.0309 354.336C85.0309 353.349 85.7705 352.548 86.6847 352.548C87.5956 352.548 88.3342 353.349 88.3342 354.336Z" fill="#E3BD91"/>
<path d="M88.3342 405.005C88.3342 405.749 87.5967 406.347 86.6847 406.347C85.7705 406.347 85.0309 405.749 85.0309 405.005C85.0309 404.267 85.7705 403.666 86.6847 403.666C87.5956 403.666 88.3342 404.267 88.3342 405.005Z" fill="#E3BD91"/>
<path d="M88.3342 302.642C88.3342 303.418 87.5967 304.047 86.6847 304.047C85.7705 304.047 85.0309 303.418 85.0309 302.642C85.0309 301.866 85.7705 301.237 86.6847 301.237C87.5956 301.237 88.3342 301.866 88.3342 302.642Z" fill="#E3BD91"/>
<path d="M88.3342 252.773C88.3342 253.552 87.5967 254.181 86.6847 254.181C85.7705 254.181 85.0309 253.552 85.0309 252.773C85.0309 251.998 85.7705 251.368 86.6847 251.368C87.5956 251.368 88.3342 251.997 88.3342 252.773Z" fill="#E3BD91"/>
<path d="M60.8452 329.198C60.8452 329.198 55.4171 324.076 57.6088 320.788C59.5787 317.832 60.8989 319.069 64.864 321.94C69.2615 325.113 68.6931 318.898 69.5524 315.668C70.7157 311.414 76.9953 311.856 75.5862 318.561C74.176 325.268 74.7016 325.06 75.5072 325.807C76.9064 327.099 82.5375 325.863 80.6992 330.008C79.3329 333.11 60.8452 329.198 60.8452 329.198Z" fill="#2A4A6B"/>
<path d="M43.6206 330.554C43.6206 330.554 33.8192 321.386 39.5819 318.391C44.7509 315.703 44.3602 320.091 48.761 321.262C53.1695 322.429 46.9239 306.074 53.5361 306.364C60.1428 306.641 58.3056 324.628 62.7152 324.628C67.1138 324.628 70.539 319.966 73.7293 320.215C78.4297 320.601 78.1246 329.037 75.1922 332.338C72.2499 335.642 51.3302 341.602 43.6206 330.554Z" fill="#45795F"/>
<path d="M48.0312 334.904C48.0312 334.904 40.5872 328.028 43.9893 322.803C46.9228 318.262 60.3414 319.695 61.1579 311.884C61.9755 304.073 69.3186 312.874 66.0174 318.757C62.7152 324.628 67.4825 328.283 69.6873 327.551C71.8921 326.832 79.9617 323.982 77.7569 330.553C75.562 337.109 48.0312 334.904 48.0312 334.904Z" fill="#2A4A6B"/>
<path d="M49.8541 334.157C49.8541 334.157 43.4966 330.255 44.9617 326.59C46.2852 323.285 47.8392 324.229 52.308 326.222C57.2642 328.427 55.427 322.454 55.6059 319.119C55.8517 314.713 62.0974 313.866 62.0974 320.714C62.0974 327.565 62.5802 327.262 63.5098 327.817C65.1658 328.785 70.303 327.163 70.1801 330.554C70.0561 333.938 49.8541 334.157 49.8541 334.157Z" fill="#61A76A"/>
<path d="M61.1569 348.319C71.3895 348.319 79.7039 340.512 80.6992 330.554H41.6144C42.6153 340.512 50.9308 348.319 61.1569 348.319Z" fill="#EFC62F"/>
<path d="M61.5278 323.226C61.5278 323.226 59.4689 318.337 62.803 317.829C66.1492 317.319 63.5767 321.42 64.864 321.94C66.1481 322.454 66.1481 325.54 64.864 326.05C63.5767 326.56 62.5912 328.109 60.8978 327.333C59.2099 326.56 57.4068 323.864 59.2099 322.661C61.0251 321.47 61.5278 323.226 61.5278 323.226Z" fill="#DC636A"/>
<path d="M48.3441 317.035C48.3441 317.035 53.6053 316.393 53.1806 319.75C52.7646 323.101 49.5074 319.492 48.67 320.598C47.8184 321.697 44.852 320.843 44.7071 319.464C44.5622 318.091 43.3539 316.717 44.5622 315.297C45.7596 313.887 48.8577 312.896 49.5183 314.961C50.168 317.02 48.3441 317.035 48.3441 317.035Z" fill="#DC636A"/>
<path d="M76.3226 324.587C76.3226 324.587 80.0594 324.138 79.7598 326.515C79.469 328.901 77.1512 326.344 76.5487 327.12C75.9429 327.908 73.8379 327.3 73.7381 326.329C73.6371 325.347 72.7756 324.37 73.6261 323.368C74.4854 322.362 76.6825 321.655 77.1512 323.11C77.622 324.587 76.3226 324.587 76.3226 324.587Z" fill="#DC636A"/>
<path d="M47.7865 203.349C48.58 202.171 51.407 200.939 54.5205 203.125C57.6329 205.314 61.125 219.901 59.2692 233.773C57.4112 247.65 65.5148 246.475 60.6202 255.338C58.6864 258.833 49.1638 255.476 50.9944 246.311C56.8427 217.069 42.7733 210.773 47.7865 203.349Z" fill="#61A76A"/>
<path d="M25.8374 193.069C25.8374 193.069 27.3574 186.8 34.1956 189.559C41.0328 192.315 44.8333 197.833 45.5927 209.372C46.3521 220.903 50.6574 224.164 54.2033 231.936C57.7503 239.71 57.4968 256.759 49.6445 257.762C41.7944 258.767 41.6462 242.431 36.475 238.703C28.1168 232.687 33.6162 224.192 34.1956 219.147C35.461 208.116 22.5439 205.859 25.8374 193.069Z" fill="#90C69E"/>
<path d="M62.3783 243.72C62.3783 243.72 64.2791 246.413 67.8853 240.836C71.2753 235.591 75.2942 230.774 74.0299 223.331C72.7635 215.886 85.0813 194.64 74.256 188.858C68.4362 185.743 55.9845 185.292 57.4792 209.118C59.2889 238.015 57.3124 236.7 62.3783 243.72Z" fill="#90C69E"/>
<path d="M23.9761 236.95C24.9199 235.311 28.0312 233.104 31.576 236.95C31.576 236.95 34.279 239.59 35.2909 244.371C36.3028 249.153 38.2935 253.498 40.8451 255.668C43.3967 257.845 48.2958 262.357 43.5657 263.194C38.839 264.03 15.8374 251.119 23.9761 236.95Z" fill="#61A76A"/>
<path d="M77.2148 218.76C76.9909 216.689 77.0886 212.056 82.4453 211.81C87.7998 211.568 93.2497 216.96 89.0234 227.649C84.7993 238.342 84.6698 252.322 72.9007 253.386C61.1261 254.451 71.2973 244.187 72.1314 243.253C76.8164 238.022 78.4209 229.875 77.2148 218.76Z" fill="#61A76A"/>
<path d="M54.6676 275.319L54.2363 275.058C67.6428 253.303 67.7975 195.736 67.7975 195.163H68.3035C68.3046 195.738 68.1487 253.449 54.6676 275.319Z" fill="#4A8279"/>
<path d="M67.7382 204.843C67.6285 204.843 67.5176 204.84 67.4046 204.828C64.0233 204.516 62.0611 199.634 61.9799 199.432L62.4496 199.248C62.4704 199.298 64.38 204.048 67.4507 204.334C69.3065 204.493 71.2611 203.007 73.2354 199.875L73.6678 200.143C71.6968 203.264 69.7038 204.843 67.7382 204.843Z" fill="#4A8279"/>
<path d="M67.082 214.083C66.9679 214.083 66.8581 214.077 66.7462 214.067C63.3671 213.754 61.4038 208.873 61.3225 208.665L61.7945 208.481C61.8142 208.531 63.7249 213.283 66.7945 213.567C68.6601 213.732 70.6059 212.24 72.5792 209.111L73.0105 209.376C71.0361 212.501 69.0431 214.083 67.082 214.083Z" fill="#4A8279"/>
<path d="M67.082 224.808C66.9679 224.808 66.8581 224.8 66.7462 224.786C63.3671 224.481 61.4038 219.599 61.3225 219.389L61.7945 219.206C61.8142 219.255 63.7249 224.007 66.7945 224.291C68.6601 224.447 70.6059 222.965 72.5792 219.835L73.0105 220.102C71.0361 223.226 69.0431 224.808 67.082 224.808Z" fill="#4A8279"/>
<path d="M65.8473 232.882C65.765 232.882 65.6838 232.879 65.6015 232.87C63.1575 232.643 61.7451 229.14 61.6891 228.99L62.161 228.809C62.1731 228.843 63.5153 232.174 65.6509 232.371C66.9294 232.483 68.3024 231.437 69.6863 229.241L70.1209 229.509C68.7029 231.746 67.2707 232.882 65.8473 232.882Z" fill="#4A8279"/>
<path d="M63.5668 280.386C51.1327 267.086 35.2042 197.09 35.045 196.39L35.54 196.278C35.6969 196.981 51.5947 266.843 63.9367 280.048L63.5668 280.386Z" fill="#4A8279"/>
<path d="M42.5143 227.885C40.9241 227.885 39.1013 226.826 37.0753 224.724L37.443 224.378C39.7553 226.773 41.7417 227.744 43.344 227.262C45.9911 226.462 46.7977 221.941 46.8076 221.897L47.3069 221.978C47.2707 222.178 46.4301 226.855 43.4889 227.742C43.1761 227.838 42.8524 227.885 42.5143 227.885Z" fill="#4A8279"/>
<path d="M27.1137 247.207C26.4597 247.207 25.6706 247.004 24.752 246.594L24.9572 246.136C26.4597 246.806 27.5297 246.89 28.1475 246.392C29.1726 245.563 28.6974 243.371 28.693 243.347L29.1879 243.238C29.211 243.341 29.7345 245.76 28.468 246.778C28.1135 247.065 27.6603 247.207 27.1137 247.207Z" fill="#4A8279"/>
<path d="M32.3256 254.04C31.6715 254.04 30.8835 253.835 29.9628 253.427L30.1702 252.972C31.6682 253.639 32.7349 253.716 33.3594 253.221C34.3789 252.396 33.9059 250.207 33.8993 250.179L34.3943 250.076C34.4195 250.176 34.9408 252.596 33.6744 253.613C33.3232 253.9 32.871 254.04 32.3256 254.04Z" fill="#4A8279"/>
<path d="M29.3964 250.518C28.7413 250.518 27.9544 250.317 27.0358 249.905L27.24 249.451C28.738 250.114 29.8058 250.208 30.4259 249.703C31.4487 248.878 30.9757 246.683 30.9713 246.658L31.4663 246.549C31.4915 246.658 32.0128 249.074 30.7485 250.093C30.394 250.375 29.9397 250.518 29.3964 250.518Z" fill="#4A8279"/>
<path d="M35.1449 256.948C34.4908 256.948 33.7028 256.743 32.7832 256.332L32.9906 255.874C34.4886 256.54 35.563 256.621 36.1776 256.13C37.2026 255.304 36.7241 253.106 36.7197 253.084L37.2147 252.979C37.2399 253.082 37.7612 255.499 36.4981 256.517C36.1425 256.806 35.6914 256.948 35.1449 256.948Z" fill="#4A8279"/>
<path d="M38.287 211.67C36.6978 211.67 34.8739 210.614 32.8458 208.512L33.2145 208.163C35.5279 210.568 37.5154 211.536 39.1144 211.05C41.7615 210.252 42.5725 205.728 42.5802 205.681L43.0784 205.764C43.0455 205.967 42.2049 210.645 39.2626 211.531C38.9476 211.626 38.6217 211.67 38.287 211.67Z" fill="#4A8279"/>
<path d="M35.6508 202.281C34.0617 202.281 32.2377 201.216 30.2118 199.117L30.5773 198.768C32.8896 201.169 34.8793 202.137 36.4783 201.655C39.1254 200.855 39.9353 196.329 39.9408 196.286L40.439 196.373C40.4061 196.57 39.5676 201.244 36.6243 202.135C36.3115 202.23 35.9888 202.281 35.6508 202.281Z" fill="#4A8279"/>
<path d="M40.6519 220.533C39.324 220.533 37.8029 219.648 36.1129 217.901L36.4816 217.555C38.3846 219.526 40.0187 220.333 41.3291 219.931C43.49 219.281 44.1627 215.556 44.1693 215.518L44.6664 215.603C44.6401 215.768 43.9399 219.67 41.4761 220.411C41.2116 220.495 40.9362 220.533 40.6519 220.533Z" fill="#4A8279"/>
<path d="M44.7926 235.922C43.2035 235.922 41.3795 234.86 39.3536 232.762L39.7213 232.41C42.0303 234.815 44.0178 235.78 45.619 235.297C48.2639 234.5 49.0771 229.975 49.0837 229.928L49.5841 230.015C49.5512 230.214 48.7105 234.888 45.7694 235.779C45.4544 235.875 45.1273 235.922 44.7926 235.922Z" fill="#4A8279"/>
<path d="M46.7625 245.386C45.1745 245.386 43.3484 244.327 41.3203 242.228L41.6879 241.879C44.0013 244.277 45.9921 245.248 47.5889 244.763C50.236 243.967 51.0437 239.444 51.0536 239.398L51.5518 239.482C51.5211 239.675 50.6794 244.356 47.7371 245.243C47.4221 245.339 47.0973 245.386 46.7625 245.386Z" fill="#4A8279"/>
<path d="M49.5183 252.28C48.3693 252.28 47.0546 251.517 45.6004 250.007L45.9692 249.661C47.589 251.346 48.9773 252.025 50.0824 251.695C51.9196 251.141 52.487 247.968 52.4925 247.936L52.9918 248.024C52.9688 248.165 52.363 251.53 50.2317 252.175C50.0045 252.241 49.7631 252.28 49.5183 252.28Z" fill="#4A8279"/>
<path d="M71.5157 268.396C52.4715 268.396 41.0393 261.409 34.7784 255.501C27.9083 249.02 25.6168 242.4 25.5927 242.331L26.0711 242.172C26.0964 242.238 28.3582 248.758 35.1493 255.159C41.3367 260.992 52.657 267.892 71.5157 267.892C71.7418 267.892 71.9668 267.892 72.195 267.892L72.1994 268.394C71.9711 268.396 71.7418 268.396 71.5157 268.396Z" fill="#4A8279"/>
<path d="M82.4639 223.429C80.9779 223.429 79.6687 221.692 79.6083 221.613L80.0144 221.317C80.0264 221.33 81.3895 223.139 82.6878 222.905C83.4746 222.775 84.1156 221.916 84.5973 220.365L85.078 220.511C84.5414 222.265 83.7666 223.236 82.7756 223.404C82.6691 223.422 82.5682 223.429 82.4639 223.429Z" fill="#4A8279"/>
<path d="M82.4826 229.286C80.8704 229.286 79.706 227.14 79.6566 227.054L80.1055 226.813C80.1132 226.839 81.1788 228.788 82.4815 228.788C82.4903 228.788 82.5012 228.788 82.5133 228.788C83.309 228.766 84.0717 228.016 84.7752 226.546L85.235 226.764C84.4394 228.415 83.5263 229.265 82.521 229.286C82.5111 229.286 82.4947 229.286 82.4826 229.286Z" fill="#4A8279"/>
<path d="M80.6718 237.807C79.0619 237.807 77.8941 235.664 77.8459 235.568L78.2914 235.337C78.3013 235.359 79.3658 237.308 80.6696 237.308C80.6806 237.308 80.6905 237.308 80.6992 237.308C81.496 237.286 82.2598 236.534 82.9622 235.066L83.4231 235.281C82.6286 236.937 81.7133 237.785 80.7091 237.807C80.696 237.807 80.6806 237.807 80.6718 237.807Z" fill="#4A8279"/>
<path d="M77.2093 246.221C76.9185 246.221 76.6507 246.162 76.4005 246.044C74.9255 245.353 74.8542 242.883 74.8531 242.777L75.3612 242.765C75.3612 242.79 75.4271 245.036 76.6178 245.592C77.3399 245.931 78.3616 245.599 79.6555 244.599L79.9672 244.994C78.906 245.813 77.9841 246.221 77.2093 246.221Z" fill="#4A8279"/>
<path d="M49.3888 272.273L49.1408 271.831C85.179 252.05 82.307 221.199 82.2763 220.89L82.7767 220.838C82.7855 220.916 83.5757 228.788 79.8575 239.012C76.4312 248.431 68.3616 261.853 49.3888 272.273Z" fill="#4A8279"/>
<path d="M45.8473 264.451C45.8473 264.451 46.0778 291.603 49.5139 295.981H69.6665C69.6665 295.981 72.4112 289.855 72.1862 264.451H45.8473Z" fill="#5B5196"/>
<path d="M72.1863 264.451H70.1044C67.7251 278.184 61.8548 287.922 54.9749 287.922C51.959 287.922 49.1474 286.029 46.7253 282.774C47.2608 288.697 48.1201 294.209 49.5139 295.981H69.6665C69.6665 295.981 72.4112 289.855 72.1863 264.451Z" fill="#4D4382"/>
<path d="M54.7115 386.875C58.0576 367.927 49.3131 354.785 49.2176 354.651L48.6743 354.996C48.7632 355.127 57.3519 368.054 54.0497 386.726L54.7115 386.875Z" fill="#2A4A6B"/>
<path d="M52.3837 362.965L52.8194 362.492L49.2889 359.315L48.8532 359.792L52.3837 362.965Z" fill="#2A4A6B"/>
<path d="M53.7073 367.312L54.0289 366.754L49.9496 364.326L49.627 364.89L53.7073 367.312Z" fill="#2A4A6B"/>
<path d="M54.6741 372.364L54.9979 371.806L50.9154 369.38L50.596 369.937L54.6741 372.364Z" fill="#2A4A6B"/>
<path d="M54.9616 377.078L55.2843 376.521L51.204 374.092L50.8824 374.65L54.9616 377.078Z" fill="#2A4A6B"/>
<path d="M55.0429 381.898L55.3634 381.344L51.2841 378.916L50.9648 379.473L55.0429 381.898Z" fill="#2A4A6B"/>
<path d="M52.5418 361.691L52.9347 357.161L52.274 357.073L51.8723 361.591L52.5418 361.691Z" fill="#2A4A6B"/>
<path d="M54.0332 366.304L55.3008 361.987L54.6544 361.769L53.3923 366.082L54.0332 366.304Z" fill="#2A4A6B"/>
<path d="M55.0165 371.893L57.3859 368.103L56.812 367.739L54.436 371.523L55.0165 371.893Z" fill="#2A4A6B"/>
<path d="M55.4829 377.758L58.0587 374.101L57.5001 373.708L54.9254 377.358L55.4829 377.758Z" fill="#2A4A6B"/>
<path d="M54.9946 383.923L57.9128 380.541L57.3904 380.098L54.4744 383.481L54.9946 383.923Z" fill="#2A4A6B"/>
<path d="M47.2465 354.339C47.3815 355.212 48.2101 355.859 49.0946 355.778C49.977 355.697 50.585 354.922 50.4522 354.049C50.3194 353.175 49.4886 352.527 48.6107 352.607C47.7228 352.688 47.117 353.464 47.2465 354.339Z" fill="#2A4A6B"/>
<path d="M46.5848 359.399C46.7747 360.269 47.6351 360.857 48.5141 360.716C49.3866 360.582 49.9419 359.764 49.7455 358.907C49.5556 358.032 48.6908 357.437 47.8172 357.583C46.9459 357.718 46.3928 358.533 46.5848 359.399Z" fill="#2A4A6B"/>
<path d="M47.353 363.977C47.2498 364.843 47.8886 365.67 48.7786 365.821C49.6631 365.973 50.4665 365.394 50.5696 364.531C50.675 363.66 50.0341 362.843 49.1418 362.684C48.2573 362.529 47.4551 363.108 47.353 363.977Z" fill="#2A4A6B"/>
<path d="M48.3177 369.022C48.2167 369.893 48.8499 370.716 49.7476 370.865C50.6289 371.021 51.4333 370.442 51.5409 369.576C51.6408 368.713 51.002 367.882 50.1164 367.732C49.2253 367.583 48.4252 368.159 48.3177 369.022Z" fill="#2A4A6B"/>
<path d="M48.6107 373.74C48.5098 374.606 49.1419 375.431 50.0286 375.587C50.9198 375.736 51.7264 375.16 51.8307 374.294C51.9338 373.428 51.2907 372.601 50.4007 372.445C49.5172 372.295 48.7106 372.874 48.6107 373.74Z" fill="#2A4A6B"/>
<path d="M48.6897 378.566C48.5854 379.429 49.2252 380.254 50.1109 380.407C51.0031 380.559 51.8032 379.978 51.9074 379.117C52.0051 378.246 51.3697 377.423 50.484 377.267C49.5951 377.119 48.7907 377.697 48.6897 378.566Z" fill="#2A4A6B"/>
<path d="M54.3734 355.507C54.8497 356.276 54.6192 357.242 53.8664 357.665C53.108 358.086 52.105 357.806 51.6276 357.033C51.1557 356.271 51.3828 355.303 52.1379 354.876C52.8973 354.454 53.8938 354.734 54.3734 355.507Z" fill="#2A4A6B"/>
<path d="M57.0446 360.642C57.3706 361.479 56.9579 362.379 56.1195 362.643C55.2898 362.914 54.3526 362.45 54.0255 361.616C53.7062 360.779 54.1155 359.882 54.954 359.611C55.7869 359.349 56.7253 359.808 57.0446 360.642Z" fill="#2A4A6B"/>
<path d="M59.459 367.271C59.5589 368.156 58.9136 368.897 58.0246 368.944C57.1335 368.988 56.34 368.318 56.2336 367.436C56.1381 366.558 56.7801 365.807 57.6658 365.767C58.5569 365.721 59.3558 366.4 59.459 367.271Z" fill="#2A4A6B"/>
<path d="M60.1746 373.379C60.2207 374.254 59.5436 374.967 58.6513 374.97C57.758 374.967 56.9887 374.257 56.9371 373.373C56.8844 372.499 57.5682 371.785 58.4604 371.785C59.3559 371.784 60.1219 372.5 60.1746 373.379Z" fill="#2A4A6B"/>
<path d="M60.0966 380.011C60.0659 380.886 59.3196 381.528 58.4208 381.447C57.5329 381.369 56.8295 380.596 56.8591 379.718C56.8844 378.84 57.635 378.202 58.5272 378.28C59.4239 378.361 60.1229 379.133 60.0966 380.011Z" fill="#2A4A6B"/>
<path d="M48.3802 396.85C48.2002 372.682 34.3997 358.441 34.2549 358.304L33.6611 358.852C33.7994 358.992 47.3541 372.996 47.5308 396.815L48.3802 396.85Z" fill="#4A8279"/>
<path d="M40.0571 367.844L40.4884 367.163L35.4039 364.048L34.9737 364.727L40.0571 367.844Z" fill="#4A8279"/>
<path d="M42.6812 372.914L42.9555 372.152L37.364 370.084L37.0918 370.85L42.6812 372.914Z" fill="#4A8279"/>
<path d="M45.0275 378.931L45.2997 378.171L39.7059 376.104L39.4393 376.86L45.0275 378.931Z" fill="#4A8279"/>
<path d="M46.4597 384.689L46.7319 383.928L41.137 381.861L40.8671 382.621L46.4597 384.689Z" fill="#4A8279"/>
<path d="M47.6614 390.628L47.9259 389.865L42.3344 387.801L42.0688 388.563L47.6614 390.628Z" fill="#4A8279"/>
<path d="M39.9638 366.234L39.414 360.555L38.58 360.596L39.1155 366.268L39.9638 366.234Z" fill="#4A8279"/>
<path d="M42.8589 371.594L43.4373 365.973L42.5889 365.852L42.0161 371.472L42.8589 371.594Z" fill="#4A8279"/>
<path d="M45.3458 378.28L47.4101 373.055L46.6155 372.737L44.5435 377.953L45.3458 378.28Z" fill="#4A8279"/>
<path d="M47.2575 385.411L49.605 380.31L48.8258 379.949L46.4816 385.043L47.2575 385.411Z" fill="#4A8279"/>
<path d="M48.0609 393.141L50.8934 388.295L50.1472 387.868L47.3135 392.71L48.0609 393.141Z" fill="#4A8279"/>
<path d="M31.7494 358.359C32.1126 359.411 33.2847 360.022 34.358 359.72C35.4303 359.418 36.0064 358.325 35.6421 357.275C35.2788 356.222 34.1067 355.609 33.0356 355.914C31.9623 356.22 31.3883 357.31 31.7494 358.359Z" fill="#4A8279"/>
<path d="M32.0819 364.768C32.5143 365.79 33.7171 366.329 34.7674 365.951C35.8133 365.59 36.3126 364.45 35.8725 363.432C35.439 362.402 34.2373 361.863 33.1914 362.239C32.1445 362.604 31.6495 363.734 32.0819 364.768Z" fill="#4A8279"/>
<path d="M34.0771 370.245C34.1452 371.335 35.123 372.216 36.2567 372.192C37.3826 372.179 38.2453 371.286 38.1761 370.196C38.1048 369.096 37.128 368.228 35.99 368.244C34.8618 368.249 34.0036 369.149 34.0771 370.245Z" fill="#4A8279"/>
<path d="M36.4169 376.258C36.4904 377.351 37.4628 378.226 38.603 378.211C39.7268 378.199 40.5905 377.296 40.5258 376.206C40.4511 375.116 39.4722 374.238 38.3451 374.253C37.2093 374.272 36.3521 375.166 36.4169 376.258Z" fill="#4A8279"/>
<path d="M37.8513 382.013C37.927 383.103 38.8939 383.984 40.0264 383.969C41.1601 383.95 42.0238 383.057 41.9591 381.964C41.8877 380.874 40.9044 380 39.7729 380.012C38.6404 380.024 37.7778 380.921 37.8513 382.013Z" fill="#4A8279"/>
<path d="M39.0518 387.952C39.1221 389.051 40.101 389.923 41.227 389.904C42.3618 389.889 43.2189 388.992 43.1552 387.908C43.0762 386.808 42.1061 385.937 40.9757 385.945C39.8398 385.965 38.9805 386.862 39.0518 387.952Z" fill="#4A8279"/>
<path d="M40.8166 358.182C41.5782 359.023 41.5167 360.268 40.6805 360.966C39.8376 361.658 38.536 361.543 37.7722 360.692C37.0161 359.86 37.0742 358.609 37.9127 357.914C38.7511 357.216 40.0494 357.337 40.8166 358.182Z" fill="#4A8279"/>
<path d="M45.2888 363.918C45.8803 364.874 45.5741 366.079 44.6029 366.602C43.636 367.122 42.3728 366.768 41.7802 365.808C41.193 364.842 41.497 363.649 42.4683 363.12C43.4373 362.601 44.7027 362.956 45.2888 363.918Z" fill="#4A8279"/>
<path d="M49.7762 371.557C50.1 372.623 49.4722 373.687 48.3857 373.946C47.297 374.204 46.1623 373.553 45.8341 372.492C45.5148 371.43 46.1381 370.362 47.2213 370.104C48.3133 369.844 49.4503 370.498 49.7762 371.557Z" fill="#4A8279"/>
<path d="M52.0545 378.934C52.3124 380.009 51.6375 381.036 50.5346 381.244C49.4305 381.444 48.321 380.743 48.0543 379.663C47.7909 378.595 48.4714 377.561 49.5743 377.358C50.6783 377.156 51.789 377.86 52.0545 378.934Z" fill="#4A8279"/>
<path d="M53.468 387.146C53.6316 388.229 52.8546 389.195 51.7275 389.302C50.6158 389.405 49.5699 388.61 49.4064 387.52C49.2385 386.431 50.0165 385.468 51.1392 385.365C52.263 385.262 53.3034 386.052 53.468 387.146Z" fill="#4A8279"/>
<path d="M57.4485 391.27C71.5695 371.657 68.8412 352.016 68.8061 351.817L68.0039 351.91C68.0302 352.107 70.7014 371.411 56.7813 390.741L57.4485 391.27Z" fill="#4A8279"/>
<path d="M67.8524 362.946L68.6031 362.65L66.3423 357.132L65.5906 357.428L67.8524 362.946Z" fill="#4A8279"/>
<path d="M66.9777 368.59L67.6483 368.134L64.3548 363.162L63.6854 363.623L66.9777 368.59Z" fill="#4A8279"/>
<path d="M65.3206 374.826L65.99 374.375L62.6944 369.401L62.0304 369.859L65.3206 374.826Z" fill="#4A8279"/>
<path d="M63.0752 380.32L63.7413 379.868L60.4501 374.897L59.7839 375.35L63.0752 380.32Z" fill="#4A8279"/>
<path d="M60.5368 385.823L61.2008 385.365L57.9073 380.395L57.2444 380.853L60.5368 385.823Z" fill="#4A8279"/>
<path d="M68.7293 361.591L71.6375 356.684L70.9396 356.22L68.0258 361.118L68.7293 361.591Z" fill="#4A8279"/>
<path d="M67.9018 367.627L71.6891 363.429L71.0756 362.834L67.2949 367.029L67.9018 367.627Z" fill="#4A8279"/>
<path d="M65.9637 374.487L70.7124 371.491L70.2613 370.769L65.506 373.752L65.9637 374.487Z" fill="#4A8279"/>
<path d="M63.2936 381.373L68.2003 378.644L67.7844 377.894L62.8842 380.622L63.2936 381.373Z" fill="#4A8279"/>
<path d="M59.3757 388.086L64.5238 385.85L64.1737 385.065L59.0289 387.299L59.3757 388.086Z" fill="#4A8279"/>
<path d="M66.7484 350.384C66.4224 351.446 67.0041 352.632 68.0521 353.024C69.0958 353.417 70.2043 352.868 70.5324 351.807C70.8595 350.745 70.2745 349.558 69.2319 349.169C68.186 348.784 67.0765 349.326 66.7484 350.384Z" fill="#4A8279"/>
<path d="M63.2332 355.752C62.9808 356.832 63.6349 357.976 64.7049 358.296C65.7584 358.62 66.8361 357.991 67.0842 356.914C67.341 355.827 66.6913 354.68 65.6234 354.366C64.5611 354.043 63.4933 354.669 63.2332 355.752Z" fill="#4A8279"/>
<path d="M61.6123 361.352C61.0219 362.274 61.2897 363.56 62.2192 364.211C63.1367 364.865 64.3604 364.653 64.9497 363.731C65.5401 362.806 65.2625 361.523 64.3395 360.863C63.4198 360.206 62.1984 360.423 61.6123 361.352Z" fill="#4A8279"/>
<path d="M59.9507 367.587C59.3624 368.512 59.6313 369.791 60.5598 370.452C61.4751 371.109 62.702 370.891 63.2935 369.972C63.8785 369.047 63.6052 367.761 62.6866 367.107C61.7615 366.45 60.5389 366.665 59.9507 367.587Z" fill="#4A8279"/>
<path d="M57.7086 373.079C57.1258 374.007 57.3881 375.287 58.3078 375.941C59.234 376.595 60.4577 376.383 61.0514 375.465C61.6364 374.54 61.3609 373.254 60.439 372.594C59.5205 371.94 58.2924 372.154 57.7086 373.079Z" fill="#4A8279"/>
<path d="M55.1691 378.582C54.5787 379.507 54.852 380.787 55.7716 381.444C56.6968 382.101 57.9204 381.883 58.5087 380.968C59.0936 380.03 58.8247 378.756 57.9051 378.1C56.9799 377.439 55.7541 377.66 55.1691 378.582Z" fill="#4A8279"/>
<path d="M74.1705 355.595C74.2901 356.725 73.5076 357.694 72.4189 357.762C71.3303 357.821 70.348 356.959 70.2317 355.825C70.1154 354.705 70.9 353.726 71.9876 353.664C73.0752 353.598 74.0508 354.461 74.1705 355.595Z" fill="#4A8279"/>
<path d="M74.3944 362.862C74.3088 363.986 73.3496 364.78 72.2565 364.624C71.1701 364.475 70.3612 363.441 70.449 362.32C70.5412 361.196 71.4949 360.408 72.5902 360.557C73.6788 360.711 74.4888 361.741 74.3944 362.862Z" fill="#4A8279"/>
<path d="M73.5076 371.681C73.1389 372.733 72.003 373.219 70.9725 372.789C69.9431 372.35 69.4119 371.154 69.7719 370.108C70.1439 369.062 71.2765 368.564 72.3059 369C73.3375 369.433 73.8676 370.632 73.5076 371.681Z" fill="#4A8279"/>
<path d="M70.9901 378.981C70.5653 380 69.4108 380.432 68.3979 379.949C67.3893 379.457 66.9064 378.236 67.3311 377.209C67.7482 376.187 68.9093 375.755 69.9189 376.241C70.9297 376.736 71.4071 377.956 70.9901 378.981Z" fill="#4A8279"/>
<path d="M67.2861 386.439C66.7725 387.413 65.5796 387.731 64.6051 387.152C63.6459 386.579 63.2705 385.318 63.7831 384.346C64.2912 383.365 65.4885 383.051 66.4532 383.627C67.4244 384.206 67.7921 385.461 67.2861 386.439Z" fill="#4A8279"/>
<path d="M36.7494 379.076C36.7494 379.076 37.0743 395.457 41.947 398.101H70.539C70.539 398.101 74.4394 394.401 74.1134 379.076H36.7494Z" fill="#5B5196"/>
<path d="M74.1134 379.076H71.158C67.7855 387.363 59.458 393.239 49.695 393.239C45.4193 393.239 41.4268 392.093 37.9928 390.128C38.7556 393.702 39.9737 397.032 41.9459 398.1H70.5379C70.5379 398.1 74.4394 394.401 74.1134 379.076Z" fill="#4D4382"/>
<path d="M158.433 198.362C164.085 195.53 166.369 188.652 163.537 183.001C160.704 177.35 153.827 175.065 148.176 177.898C142.525 180.73 140.24 187.607 143.073 193.259C145.905 198.91 152.782 201.195 158.433 198.362Z" fill="#D89551"/>
<path d="M124.137 190.318H183.508C183.508 190.318 175.636 163.748 153.822 163.092C132.009 162.436 124.137 190.318 124.137 190.318Z" fill="#5B5196"/>
<path d="M155.49 172.623L151.629 172.579L152.155 70.7212L156.015 70.7662L155.49 172.623Z" fill="#5B5196"/>
<path d="M387.442 118.507H242.876V170.446H387.442V118.507Z" fill="#B3D0FF"/>
<path d="M390.385 118.507H384.499C373.641 118.507 364.756 127.39 364.756 138.249V178.453H410.127V138.249C410.127 127.39 401.243 118.507 390.385 118.507Z" fill="#94B8ED"/>
<path d="M364.756 143.091H222.415V319.905H364.756V143.091Z" fill="#B3D0FF"/>
<path d="M248.043 118.507H242.157C231.299 118.507 222.414 127.39 222.414 138.249V178.453H267.785V138.249C267.786 127.39 258.902 118.507 248.043 118.507Z" fill="#B3D0FF"/>
<path d="M240.706 186.165V184.741L243.84 183.812C244.068 183.747 244.248 183.643 244.381 183.497C244.512 183.353 244.58 183.14 244.58 182.861V161.227H238.317C238.115 161.227 237.938 161.29 237.785 161.417C237.633 161.543 237.538 161.721 237.502 161.948L236.742 166.028H234.522V158.949H258.623V166.028H256.403L255.646 161.948C255.593 161.695 255.5 161.51 255.361 161.397C255.222 161.282 255.05 161.227 254.848 161.227H248.565V182.861C248.565 183.141 248.639 183.353 248.785 183.497C248.931 183.643 249.104 183.747 249.306 183.812L252.438 184.741V186.165H240.706Z" fill="white"/>
<path d="M306.93 162.44H275.199C274.22 162.44 273.42 161.639 273.42 160.661C273.42 159.682 274.221 158.882 275.199 158.882H306.93C307.909 158.882 308.709 159.682 308.709 160.661C308.709 161.639 307.909 162.44 306.93 162.44Z" fill="white"/>
<path d="M332.729 162.44H316.938C315.959 162.44 315.159 161.639 315.159 160.661C315.159 159.682 315.96 158.882 316.938 158.882H332.729C333.708 158.882 334.508 159.682 334.508 160.661C334.509 161.639 333.708 162.44 332.729 162.44Z" fill="white"/>
<path d="M351.708 162.44H342.219C341.24 162.44 340.44 161.639 340.44 160.661C340.44 159.682 341.241 158.882 342.219 158.882H351.708C352.687 158.882 353.487 159.682 353.487 160.661C353.487 161.639 352.686 162.44 351.708 162.44Z" fill="white"/>
<path d="M351.857 169.261H275.052C274.156 169.261 273.421 168.526 273.421 167.63C273.421 166.733 274.156 165.999 275.052 165.999H351.857C352.753 165.999 353.487 166.733 353.487 167.63C353.487 168.526 352.753 169.261 351.857 169.261Z" fill="white"/>
<path d="M299.665 176.378H275.052C274.156 176.378 273.421 175.644 273.421 174.747C273.421 173.849 274.156 173.116 275.052 173.116H299.665C300.561 173.116 301.296 173.85 301.296 174.747C301.296 175.644 300.561 176.378 299.665 176.378Z" fill="white"/>
<path d="M351.857 176.378H309.155C308.258 176.378 307.524 175.644 307.524 174.747C307.524 173.849 308.258 173.116 309.155 173.116H351.857C352.753 173.116 353.487 173.85 353.487 174.747C353.487 175.644 352.753 176.378 351.857 176.378Z" fill="white"/>
<path d="M351.708 184.088H275.2C274.221 184.088 273.421 183.287 273.421 182.309C273.421 181.33 274.223 180.53 275.2 180.53H351.708C352.687 180.53 353.487 181.33 353.487 182.309C353.487 183.287 352.686 184.088 351.708 184.088Z" fill="white"/>
<path d="M266.896 198.915H235.165C234.186 198.915 233.386 198.114 233.386 197.136C233.386 196.157 234.186 195.357 235.165 195.357H266.896C267.875 195.357 268.675 196.157 268.675 197.136C268.676 198.114 267.875 198.915 266.896 198.915Z" fill="white"/>
<path d="M292.696 198.915H276.905C275.926 198.915 275.126 198.114 275.126 197.136C275.126 196.157 275.927 195.357 276.905 195.357H292.696C293.675 195.357 294.475 196.157 294.475 197.136C294.475 198.114 293.674 198.915 292.696 198.915Z" fill="white"/>
<path d="M311.674 198.915H302.185C301.206 198.915 300.406 198.114 300.406 197.136C300.406 196.157 301.207 195.357 302.185 195.357H311.674C312.653 195.357 313.453 196.157 313.453 197.136C313.453 198.114 312.653 198.915 311.674 198.915Z" fill="white"/>
<path d="M311.822 205.736H235.018C234.12 205.736 233.387 205.002 233.387 204.105C233.387 203.208 234.121 202.474 235.018 202.474H311.822C312.719 202.474 313.453 203.208 313.453 204.105C313.453 205.002 312.72 205.736 311.822 205.736Z" fill="white"/>
<path d="M259.631 212.853H235.018C234.12 212.853 233.387 212.118 233.387 211.222C233.387 210.324 234.121 209.591 235.018 209.591H259.631C260.527 209.591 261.262 210.325 261.262 211.222C261.263 212.118 260.528 212.853 259.631 212.853Z" fill="white"/>
<path d="M311.822 212.853H269.12C268.223 212.853 267.49 212.118 267.49 211.222C267.49 210.324 268.224 209.591 269.12 209.591H311.822C312.719 209.591 313.453 210.325 313.453 211.222C313.453 212.118 312.72 212.853 311.822 212.853Z" fill="white"/>
<path d="M311.674 220.563H235.166C234.187 220.563 233.387 219.762 233.387 218.784C233.387 217.806 234.187 217.005 235.166 217.005H311.674C312.653 217.005 313.453 217.807 313.453 218.784C313.453 219.762 312.653 220.563 311.674 220.563Z" fill="white"/>
<path d="M353.486 195.356H320.274V220.562H353.486V195.356Z" fill="white"/>
<path d="M284.442 235.39H234.99C234.011 235.39 233.211 234.589 233.211 233.611C233.211 232.632 234.012 231.832 234.99 231.832H284.442C285.421 231.832 286.221 232.633 286.221 233.611C286.221 234.589 285.42 235.39 284.442 235.39Z" fill="white"/>
<path d="M332.729 235.39H316.938C315.959 235.39 315.159 234.589 315.159 233.611C315.159 232.632 315.96 231.832 316.938 231.832H332.729C333.708 231.832 334.508 232.633 334.508 233.611C334.509 234.589 333.708 235.39 332.729 235.39Z" fill="white"/>
<path d="M351.708 235.39H342.219C341.24 235.39 340.44 234.589 340.44 233.611C340.44 232.632 341.241 231.832 342.219 231.832H351.708C352.687 231.832 353.487 232.633 353.487 233.611C353.487 234.589 352.686 235.39 351.708 235.39Z" fill="white"/>
<path d="M351.857 242.211H275.052C274.156 242.211 273.421 241.477 273.421 240.58C273.421 239.683 274.156 238.949 275.052 238.949H351.857C352.753 238.949 353.487 239.683 353.487 240.58C353.487 241.477 352.753 242.211 351.857 242.211Z" fill="white"/>
<path d="M273.453 249.328H234.84C233.943 249.328 233.21 248.593 233.21 247.697C233.21 246.8 233.944 246.066 234.84 246.066H273.453C274.35 246.066 275.084 246.8 275.084 247.697C275.084 248.593 274.35 249.328 273.453 249.328Z" fill="white"/>
<path d="M351.857 249.328H309.155C308.258 249.328 307.524 248.593 307.524 247.697C307.524 246.8 308.258 246.066 309.155 246.066H351.857C352.753 246.066 353.487 246.8 353.487 247.697C353.487 248.593 352.753 249.328 351.857 249.328Z" fill="white"/>
<path d="M351.708 257.037H234.99C234.011 257.037 233.211 256.236 233.211 255.258C233.211 254.279 234.012 253.479 234.99 253.479H351.708C352.687 253.479 353.487 254.281 353.487 255.258C353.487 256.237 352.686 257.037 351.708 257.037Z" fill="white"/>
<path d="M273.453 295.589H234.84C233.943 295.589 233.21 294.855 233.21 293.958C233.21 293.061 233.944 292.327 234.84 292.327H273.453C274.35 292.327 275.084 293.061 275.084 293.958C275.084 294.855 274.35 295.589 273.453 295.589Z" fill="white"/>
<path d="M351.857 295.589H309.155C308.258 295.589 307.524 294.855 307.524 293.958C307.524 293.061 308.258 292.327 309.155 292.327H351.857C352.753 292.327 353.487 293.061 353.487 293.958C353.487 294.855 352.753 295.589 351.857 295.589Z" fill="white"/>
<path d="M351.708 303.298H234.99C234.011 303.298 233.211 302.497 233.211 301.519C233.211 300.541 234.012 299.74 234.99 299.74H351.708C352.687 299.74 353.487 300.542 353.487 301.519C353.487 302.498 352.686 303.298 351.708 303.298Z" fill="white"/>
</svg>
