<svg width="64" height="64" viewBox="0 0 64 64" fill="none" xmlns="http://www.w3.org/2000/svg">
<path d="M56 26V18C56 8.058 45.256 0 32 0C18.744 0 8 8.058 8 18V26C3.58133 26 0 28.686 0 32V38V40V44V46C0 55.942 10.744 64 24 64H40C53.256 64 64 55.942 64 46V44V40V38V32C64 28.684 60.416 26 56 26ZM13.3333 18C13.3333 10.268 21.6907 4 32 4C42.3093 4 50.6667 10.268 50.6667 18V26H45.3333V18.004C45.3333 12.48 39.3653 8.004 32 8.004C24.6347 8.004 18.6667 12.48 18.6667 18.004V26H13.3333V18ZM42.6667 18V18.006V26H21.3333V18.004V18C21.3333 13.582 26.1093 10 32 10C37.8907 10 42.6667 13.582 42.6667 18ZM58.6667 38V40V44V46C58.6667 53.718 50.2907 60 40 60H24C13.7093 60 5.33333 53.718 5.33333 46V44V40V38V32C5.33333 30.896 6.528 30 8 30C9.77867 30 11.5547 30 13.3333 30H50.6667C52.4427 30 54.2187 30 56 30C57.4693 30 58.6667 30.896 58.6667 32V38Z" fill="#89CFF0"/>
<path d="M32 38C29.056 38 26.6667 39.79 26.6667 42C26.6667 43.214 27.5547 45.52 28.4453 47.344C29.1707 48.828 30.0827 49.996 32 49.996C34.0853 49.996 34.8293 48.84 35.5573 47.364C36.4587 45.536 37.3333 43.218 37.3333 42C37.3333 39.79 34.944 38 32 38Z" fill="#89CFF0"/>
</svg>
